STARTFONT 2.1
COMMENT Exported by Fony v1.4.7
FONT Bahnschrift_large
SIZE 52 96 96
FONTBOUNDINGBOX 42 51 0 -9
STARTPROPERTIES 6
COPYRIGHT ""
RESOLUTION_X 96
RESOLUTION_Y 96
FONT_ASCENT 43
FONT_DESCENT 9
DEFAULT_CHAR 0
ENDPROPERTIES
CHARS 256
STARTCHAR 000
ENCODING 0
SWIDTH 2232 0
DWIDTH 31 0
BBX 0 0 0 0
BITMAP
ENDCHAR
STARTCHAR 001
ENCODING 1
SWIDTH 2232 0
DWIDTH 31 0
BBX 11 33 1 1
BITMAP
FFE0
FFE0
C0E0
C0E0
C0E0
C0E0
C0E0
C0E0
C0E0
C0E0
C0E0
C0E0
C0E0
C0E0
C0E0
C0E0
C0E0
C0E0
C0E0
C0E0
C0E0
C0E0
C0E0
C0E0
C0E0
C0E0
C0E0
C0E0
C0E0
C0E0
C0E0
FFE0
FFE0
ENDCHAR
STARTCHAR 002
ENCODING 2
SWIDTH 2232 0
DWIDTH 31 0
BBX 0 0 0 0
BITMAP
ENDCHAR
STARTCHAR 003
ENCODING 3
SWIDTH 2232 0
DWIDTH 31 0
BBX 11 33 1 1
BITMAP
FFE0
FFE0
C0E0
C0E0
C0E0
C0E0
C0E0
C0E0
C0E0
C0E0
C0E0
C0E0
C0E0
C0E0
C0E0
C0E0
C0E0
C0E0
C0E0
C0E0
C0E0
C0E0
C0E0
C0E0
C0E0
C0E0
C0E0
C0E0
C0E0
C0E0
C0E0
FFE0
FFE0
ENDCHAR
STARTCHAR 004
ENCODING 4
SWIDTH 2232 0
DWIDTH 31 0
BBX 11 33 1 1
BITMAP
FFE0
FFE0
C0E0
C0E0
C0E0
C0E0
C0E0
C0E0
C0E0
C0E0
C0E0
C0E0
C0E0
C0E0
C0E0
C0E0
C0E0
C0E0
C0E0
C0E0
C0E0
C0E0
C0E0
C0E0
C0E0
C0E0
C0E0
C0E0
C0E0
C0E0
C0E0
FFE0
FFE0
ENDCHAR
STARTCHAR 005
ENCODING 5
SWIDTH 2232 0
DWIDTH 31 0
BBX 11 33 1 1
BITMAP
FFE0
FFE0
C0E0
C0E0
C0E0
C0E0
C0E0
C0E0
C0E0
C0E0
C0E0
C0E0
C0E0
C0E0
C0E0
C0E0
C0E0
C0E0
C0E0
C0E0
C0E0
C0E0
C0E0
C0E0
C0E0
C0E0
C0E0
C0E0
C0E0
C0E0
C0E0
FFE0
FFE0
ENDCHAR
STARTCHAR 006
ENCODING 6
SWIDTH 2232 0
DWIDTH 31 0
BBX 11 33 1 1
BITMAP
FFE0
FFE0
C0E0
C0E0
C0E0
C0E0
C0E0
C0E0
C0E0
C0E0
C0E0
C0E0
C0E0
C0E0
C0E0
C0E0
C0E0
C0E0
C0E0
C0E0
C0E0
C0E0
C0E0
C0E0
C0E0
C0E0
C0E0
C0E0
C0E0
C0E0
C0E0
FFE0
FFE0
ENDCHAR
STARTCHAR 007
ENCODING 7
SWIDTH 2232 0
DWIDTH 31 0
BBX 11 33 1 1
BITMAP
FFE0
FFE0
C0E0
C0E0
C0E0
C0E0
C0E0
C0E0
C0E0
C0E0
C0E0
C0E0
C0E0
C0E0
C0E0
C0E0
C0E0
C0E0
C0E0
C0E0
C0E0
C0E0
C0E0
C0E0
C0E0
C0E0
C0E0
C0E0
C0E0
C0E0
C0E0
FFE0
FFE0
ENDCHAR
STARTCHAR 008
ENCODING 8
SWIDTH 2232 0
DWIDTH 31 0
BBX 11 33 1 1
BITMAP
FFE0
FFE0
C0E0
C0E0
C0E0
C0E0
C0E0
C0E0
C0E0
C0E0
C0E0
C0E0
C0E0
C0E0
C0E0
C0E0
C0E0
C0E0
C0E0
C0E0
C0E0
C0E0
C0E0
C0E0
C0E0
C0E0
C0E0
C0E0
C0E0
C0E0
C0E0
FFE0
FFE0
ENDCHAR
STARTCHAR 009
ENCODING 9
SWIDTH 2232 0
DWIDTH 31 0
BBX 0 0 0 0
BITMAP
ENDCHAR
STARTCHAR 010
ENCODING 10
SWIDTH 2232 0
DWIDTH 31 0
BBX 0 0 0 0
BITMAP
ENDCHAR
STARTCHAR 011
ENCODING 11
SWIDTH 2232 0
DWIDTH 31 0
BBX 11 33 1 1
BITMAP
FFE0
FFE0
C0E0
C0E0
C0E0
C0E0
C0E0
C0E0
C0E0
C0E0
C0E0
C0E0
C0E0
C0E0
C0E0
C0E0
C0E0
C0E0
C0E0
C0E0
C0E0
C0E0
C0E0
C0E0
C0E0
C0E0
C0E0
C0E0
C0E0
C0E0
C0E0
FFE0
FFE0
ENDCHAR
STARTCHAR 012
ENCODING 12
SWIDTH 2232 0
DWIDTH 31 0
BBX 23 31 4 0
BITMAP
FFFFFE
FFFFFE
FFFFFE
FFFFFE
E0001E
E0001E
E0001E
E0001E
E0001E
E0001E
E0001E
E0001E
E0001E
E0001E
E0001E
E0001E
E0001E
E0001E
E0001E
E0001E
E0001E
E0001E
E0001E
E0001E
E0001E
E0001E
E0001E
FFFFFE
FFFFFE
FFFFFE
FFFFFE
ENDCHAR
STARTCHAR 013
ENCODING 13
SWIDTH 2232 0
DWIDTH 31 0
BBX 0 0 0 0
BITMAP
ENDCHAR
STARTCHAR 014
ENCODING 14
SWIDTH 2232 0
DWIDTH 31 0
BBX 11 33 1 1
BITMAP
FFE0
FFE0
C0E0
C0E0
C0E0
C0E0
C0E0
C0E0
C0E0
C0E0
C0E0
C0E0
C0E0
C0E0
C0E0
C0E0
C0E0
C0E0
C0E0
C0E0
C0E0
C0E0
C0E0
C0E0
C0E0
C0E0
C0E0
C0E0
C0E0
C0E0
C0E0
FFE0
FFE0
ENDCHAR
STARTCHAR 015
ENCODING 15
SWIDTH 2232 0
DWIDTH 31 0
BBX 11 33 1 1
BITMAP
FFE0
FFE0
C0E0
C0E0
C0E0
C0E0
C0E0
C0E0
C0E0
C0E0
C0E0
C0E0
C0E0
C0E0
C0E0
C0E0
C0E0
C0E0
C0E0
C0E0
C0E0
C0E0
C0E0
C0E0
C0E0
C0E0
C0E0
C0E0
C0E0
C0E0
C0E0
FFE0
FFE0
ENDCHAR
STARTCHAR 016
ENCODING 16
SWIDTH 2232 0
DWIDTH 31 0
BBX 11 33 1 1
BITMAP
FFE0
FFE0
C0E0
C0E0
C0E0
C0E0
C0E0
C0E0
C0E0
C0E0
C0E0
C0E0
C0E0
C0E0
C0E0
C0E0
C0E0
C0E0
C0E0
C0E0
C0E0
C0E0
C0E0
C0E0
C0E0
C0E0
C0E0
C0E0
C0E0
C0E0
C0E0
FFE0
FFE0
ENDCHAR
STARTCHAR 017
ENCODING 17
SWIDTH 2232 0
DWIDTH 31 0
BBX 11 33 1 1
BITMAP
FFE0
FFE0
C0E0
C0E0
C0E0
C0E0
C0E0
C0E0
C0E0
C0E0
C0E0
C0E0
C0E0
C0E0
C0E0
C0E0
C0E0
C0E0
C0E0
C0E0
C0E0
C0E0
C0E0
C0E0
C0E0
C0E0
C0E0
C0E0
C0E0
C0E0
C0E0
FFE0
FFE0
ENDCHAR
STARTCHAR 018
ENCODING 18
SWIDTH 2232 0
DWIDTH 31 0
BBX 11 33 1 1
BITMAP
FFE0
FFE0
C0E0
C0E0
C0E0
C0E0
C0E0
C0E0
C0E0
C0E0
C0E0
C0E0
C0E0
C0E0
C0E0
C0E0
C0E0
C0E0
C0E0
C0E0
C0E0
C0E0
C0E0
C0E0
C0E0
C0E0
C0E0
C0E0
C0E0
C0E0
C0E0
FFE0
FFE0
ENDCHAR
STARTCHAR 019
ENCODING 19
SWIDTH 2232 0
DWIDTH 31 0
BBX 11 33 1 1
BITMAP
FFE0
FFE0
C0E0
C0E0
C0E0
C0E0
C0E0
C0E0
C0E0
C0E0
C0E0
C0E0
C0E0
C0E0
C0E0
C0E0
C0E0
C0E0
C0E0
C0E0
C0E0
C0E0
C0E0
C0E0
C0E0
C0E0
C0E0
C0E0
C0E0
C0E0
C0E0
FFE0
FFE0
ENDCHAR
STARTCHAR 020
ENCODING 20
SWIDTH 2232 0
DWIDTH 31 0
BBX 11 33 1 1
BITMAP
FFE0
FFE0
C0E0
C0E0
C0E0
C0E0
C0E0
C0E0
C0E0
C0E0
C0E0
C0E0
C0E0
C0E0
C0E0
C0E0
C0E0
C0E0
C0E0
C0E0
C0E0
C0E0
C0E0
C0E0
C0E0
C0E0
C0E0
C0E0
C0E0
C0E0
C0E0
FFE0
FFE0
ENDCHAR
STARTCHAR 021
ENCODING 21
SWIDTH 2232 0
DWIDTH 31 0
BBX 11 33 1 1
BITMAP
FFE0
FFE0
C0E0
C0E0
C0E0
C0E0
C0E0
C0E0
C0E0
C0E0
C0E0
C0E0
C0E0
C0E0
C0E0
C0E0
C0E0
C0E0
C0E0
C0E0
C0E0
C0E0
C0E0
C0E0
C0E0
C0E0
C0E0
C0E0
C0E0
C0E0
C0E0
FFE0
FFE0
ENDCHAR
STARTCHAR 022
ENCODING 22
SWIDTH 2232 0
DWIDTH 31 0
BBX 11 33 1 1
BITMAP
FFE0
FFE0
C0E0
C0E0
C0E0
C0E0
C0E0
C0E0
C0E0
C0E0
C0E0
C0E0
C0E0
C0E0
C0E0
C0E0
C0E0
C0E0
C0E0
C0E0
C0E0
C0E0
C0E0
C0E0
C0E0
C0E0
C0E0
C0E0
C0E0
C0E0
C0E0
FFE0
FFE0
ENDCHAR
STARTCHAR 023
ENCODING 23
SWIDTH 2232 0
DWIDTH 31 0
BBX 11 33 1 1
BITMAP
FFE0
FFE0
C0E0
C0E0
C0E0
C0E0
C0E0
C0E0
C0E0
C0E0
C0E0
C0E0
C0E0
C0E0
C0E0
C0E0
C0E0
C0E0
C0E0
C0E0
C0E0
C0E0
C0E0
C0E0
C0E0
C0E0
C0E0
C0E0
C0E0
C0E0
C0E0
FFE0
FFE0
ENDCHAR
STARTCHAR 024
ENCODING 24
SWIDTH 2232 0
DWIDTH 31 0
BBX 11 33 1 1
BITMAP
FFE0
FFE0
C0E0
C0E0
C0E0
C0E0
C0E0
C0E0
C0E0
C0E0
C0E0
C0E0
C0E0
C0E0
C0E0
C0E0
C0E0
C0E0
C0E0
C0E0
C0E0
C0E0
C0E0
C0E0
C0E0
C0E0
C0E0
C0E0
C0E0
C0E0
C0E0
FFE0
FFE0
ENDCHAR
STARTCHAR 025
ENCODING 25
SWIDTH 2232 0
DWIDTH 31 0
BBX 11 33 1 1
BITMAP
FFE0
FFE0
C0E0
C0E0
C0E0
C0E0
C0E0
C0E0
C0E0
C0E0
C0E0
C0E0
C0E0
C0E0
C0E0
C0E0
C0E0
C0E0
C0E0
C0E0
C0E0
C0E0
C0E0
C0E0
C0E0
C0E0
C0E0
C0E0
C0E0
C0E0
C0E0
FFE0
FFE0
ENDCHAR
STARTCHAR 026
ENCODING 26
SWIDTH 2232 0
DWIDTH 31 0
BBX 11 33 1 1
BITMAP
FFE0
FFE0
C0E0
C0E0
C0E0
C0E0
C0E0
C0E0
C0E0
C0E0
C0E0
C0E0
C0E0
C0E0
C0E0
C0E0
C0E0
C0E0
C0E0
C0E0
C0E0
C0E0
C0E0
C0E0
C0E0
C0E0
C0E0
C0E0
C0E0
C0E0
C0E0
FFE0
FFE0
ENDCHAR
STARTCHAR 027
ENCODING 27
SWIDTH 2232 0
DWIDTH 31 0
BBX 11 33 1 1
BITMAP
FFE0
FFE0
C0E0
C0E0
C0E0
C0E0
C0E0
C0E0
C0E0
C0E0
C0E0
C0E0
C0E0
C0E0
C0E0
C0E0
C0E0
C0E0
C0E0
C0E0
C0E0
C0E0
C0E0
C0E0
C0E0
C0E0
C0E0
C0E0
C0E0
C0E0
C0E0
FFE0
FFE0
ENDCHAR
STARTCHAR 028
ENCODING 28
SWIDTH 2232 0
DWIDTH 31 0
BBX 0 0 0 0
BITMAP
ENDCHAR
STARTCHAR 029
ENCODING 29
SWIDTH 2232 0
DWIDTH 31 0
BBX 0 0 0 0
BITMAP
ENDCHAR
STARTCHAR 030
ENCODING 30
SWIDTH 2232 0
DWIDTH 31 0
BBX 0 0 0 0
BITMAP
ENDCHAR
STARTCHAR 031
ENCODING 31
SWIDTH 2232 0
DWIDTH 31 0
BBX 0 0 0 0
BITMAP
ENDCHAR
STARTCHAR 032
ENCODING 32
SWIDTH 504 0
DWIDTH 7 0
BBX 0 0 0 0
BITMAP
ENDCHAR
STARTCHAR 033
ENCODING 33
SWIDTH 720 0
DWIDTH 10 0
BBX 4 31 3 0
BITMAP
F0
F0
F0
F0
F0
F0
F0
F0
F0
F0
F0
F0
F0
F0
F0
F0
F0
F0
F0
F0
F0
F0
F0
00
00
00
00
F0
F0
F0
F0
ENDCHAR
STARTCHAR 034
ENCODING 34
SWIDTH 1152 0
DWIDTH 16 0
BBX 11 11 3 20
BITMAP
F3E0
F3E0
F3E0
F3E0
F3E0
F3E0
F3E0
F3E0
F3E0
F3E0
F3E0
ENDCHAR
STARTCHAR 035
ENCODING 35
SWIDTH 1944 0
DWIDTH 27 0
BBX 23 31 2 0
BITMAP
00E070
00E070
01E0F0
01E0F0
01E0E0
01C0E0
01C0E0
01C0E0
7FFFFE
7FFFFE
7FFFFE
7FFFFE
0381C0
0383C0
0783C0
0783C0
078380
070380
070380
FFFFFC
FFFFFC
FFFFFC
FFFFFC
0E0700
0E0700
0E0F00
1E0F00
1E0F00
1C0E00
1C0E00
1C0E00
ENDCHAR
STARTCHAR 036
ENCODING 36
SWIDTH 1800 0
DWIDTH 25 0
BBX 20 37 2 -3
BITMAP
00F800
00F800
00F800
01FE00
07FFC0
1FFFE0
1FFFE0
3FFBC0
3EF880
7CF800
7CF800
7CF800
7CF800
7CF800
7EF800
3FF800
3FF800
1FFF00
0FFFC0
03FFE0
00FFE0
00FBF0
00F9F0
00F8F0
00F8F0
00F8F0
20F8F0
30F8F0
78F9F0
FEFFF0
7FFFE0
3FFFC0
0FFF80
03FC00
00F800
00F800
00F800
ENDCHAR
STARTCHAR 037
ENCODING 37
SWIDTH 2160 0
DWIDTH 30 0
BBX 25 31 2 0
BITMAP
1F001E00
7F803C00
7FC03800
F3C07800
F1C07000
F1C0F000
F1C0E000
F1C1E000
F1C1C000
F3C3C000
7FC78000
7F878000
1F0F0000
000F0000
001E0000
001E0000
003C0000
00380000
00783E00
0070FF00
00F0FF80
00E1E380
01E1E380
03C1E380
03C1E380
0781E380
0781E380
0F01E380
0F00FF80
1E00FF00
1E003E00
ENDCHAR
STARTCHAR 038
ENCODING 38
SWIDTH 2016 0
DWIDTH 28 0
BBX 24 31 3 0
BITMAP
00FC00
03FF00
07FF80
0FFFC0
1F87C0
1F03E0
1E03E0
1E01E0
1E01E0
1E0000
1E0000
1F0000
1F0000
0F8000
0F8000
1FC03C
3FE03C
7FF03C
F9F83C
F8FC3C
F07E7C
F03F78
F01FF8
F00FF8
F007F0
F803F0
7E07F0
7FFFF8
3FFFFC
1FFE3E
07F83F
ENDCHAR
STARTCHAR 039
ENCODING 39
SWIDTH 576 0
DWIDTH 8 0
BBX 4 11 2 20
BITMAP
F0
F0
F0
F0
F0
F0
F0
F0
F0
F0
F0
ENDCHAR
STARTCHAR 040
ENCODING 40
SWIDTH 1080 0
DWIDTH 15 0
BBX 10 41 4 -7
BITMAP
0100
0380
07C0
0780
0F80
1F00
1E00
3E00
3C00
3C00
7C00
7800
7800
F800
F000
F000
F000
F000
F000
F000
F000
F000
F000
F000
F000
F000
F000
F800
7800
7800
7C00
3C00
3C00
3E00
1E00
1F00
0F80
0780
07C0
0380
0100
ENDCHAR
STARTCHAR 041
ENCODING 41
SWIDTH 1080 0
DWIDTH 15 0
BBX 10 41 1 -7
BITMAP
2000
7000
F000
F800
7C00
3C00
3E00
1E00
1F00
0F00
0F00
0F80
0780
0780
0780
0780
03C0
03C0
03C0
03C0
03C0
03C0
03C0
03C0
03C0
0780
0780
0780
0780
0F80
0F00
0F00
1F00
1E00
3E00
3C00
7C00
F800
F000
7000
2000
ENDCHAR
STARTCHAR 042
ENCODING 42
SWIDTH 1296 0
DWIDTH 18 0
BBX 16 16 1 17
BITMAP
01C0
01C0
01C0
01C0
41C3
79DF
FFFF
7FFF
0FF8
07E0
07F0
0FF8
1E78
1E3C
1C1C
0810
ENDCHAR
STARTCHAR 043
ENCODING 43
SWIDTH 1656 0
DWIDTH 23 0
BBX 17 16 3 6
BITMAP
03E000
03E000
03E000
03E000
03E000
03E000
FFFF80
FFFF80
FFFF80
FFFF80
03E000
03E000
03E000
03E000
03E000
03E000
ENDCHAR
STARTCHAR 044
ENCODING 44
SWIDTH 720 0
DWIDTH 10 0
BBX 4 7 3 -3
BITMAP
F0
F0
F0
F0
E0
C0
80
ENDCHAR
STARTCHAR 045
ENCODING 45
SWIDTH 1512 0
DWIDTH 21 0
BBX 14 4 3 9
BITMAP
FFFC
FFFC
FFFC
FFFC
ENDCHAR
STARTCHAR 046
ENCODING 46
SWIDTH 720 0
DWIDTH 10 0
BBX 4 4 3 0
BITMAP
F0
F0
F0
F0
ENDCHAR
STARTCHAR 047
ENCODING 47
SWIDTH 1152 0
DWIDTH 16 0
BBX 16 40 0 -6
BITMAP
0003
0007
0007
0007
000F
000F
000F
001E
001E
001E
003C
003C
003C
0078
0078
00F8
00F0
00F0
01F0
01E0
01E0
03C0
03C0
03C0
0780
0780
0780
0F00
0F00
0F00
1E00
1E00
3E00
3C00
3C00
7800
7800
7800
F000
F000
ENDCHAR
STARTCHAR 048
ENCODING 48
SWIDTH 1728 0
DWIDTH 24 0
BBX 18 31 3 0
BITMAP
07F000
1FFC00
3FFF00
7FFF00
7C1F80
780F80
F80780
F807C0
F007C0
F007C0
F007C0
F007C0
F007C0
F007C0
F007C0
F007C0
F007C0
F007C0
F007C0
F007C0
F007C0
F007C0
F007C0
F807C0
F80780
780F80
7C1F80
7FFF00
3FFF00
1FFC00
07F000
ENDCHAR
STARTCHAR 049
ENCODING 49
SWIDTH 1008 0
DWIDTH 14 0
BBX 9 31 2 0
BITMAP
1F80
3F80
7F80
FF80
FF80
EF80
8F80
0F80
0F80
0F80
0F80
0F80
0F80
0F80
0F80
0F80
0F80
0F80
0F80
0F80
0F80
0F80
0F80
0F80
0F80
0F80
0F80
0F80
0F80
0F80
0F80
ENDCHAR
STARTCHAR 050
ENCODING 50
SWIDTH 1584 0
DWIDTH 22 0
BBX 18 31 2 0
BITMAP
03F800
0FFE00
1FFF00
3FFF80
7E1F80
7C0780
7807C0
F807C0
0007C0
0007C0
000780
000F80
000F80
001F00
003E00
007E00
007C00
00F800
01F800
03F000
03E000
07C000
0FC000
1F8000
1F0000
3E0000
7E0000
7FFFC0
7FFFC0
7FFFC0
7FFFC0
ENDCHAR
STARTCHAR 051
ENCODING 51
SWIDTH 1656 0
DWIDTH 23 0
BBX 18 31 2 0
BITMAP
03F000
0FFC00
1FFF00
3FFF00
3E1F80
7C0F80
780780
F80780
000780
000780
000780
000F80
001F00
01FE00
01FC00
01FC00
01FF00
001F80
000780
000780
0007C0
0003C0
0003C0
F007C0
F807C0
F80780
7E1F80
3FFF80
3FFF00
0FFE00
03F800
ENDCHAR
STARTCHAR 052
ENCODING 52
SWIDTH 1728 0
DWIDTH 24 0
BBX 19 31 3 0
BITMAP
003C00
007C00
007800
00F800
00F000
01F000
01E000
01E000
03E000
03C000
07C000
078000
0F8000
0F0780
1F0780
1E0780
3E0780
3C0780
7C0780
7C0780
780780
F80780
FFFFE0
FFFFE0
FFFFE0
FFFFE0
000780
000780
000780
000780
000780
ENDCHAR
STARTCHAR 053
ENCODING 53
SWIDTH 1656 0
DWIDTH 23 0
BBX 17 31 3 0
BITMAP
7FFF00
7FFF00
7FFF00
7FFF00
780000
780000
780000
780000
780000
780000
7BF000
7FFC00
7FFE00
7FFF00
7E1F00
780F80
000780
000780
000780
000780
000780
000780
000780
F80780
F80780
780F80
7E1F00
3FFF00
1FFE00
0FFC00
03F000
ENDCHAR
STARTCHAR 054
ENCODING 54
SWIDTH 1584 0
DWIDTH 22 0
BBX 17 31 3 0
BITMAP
00F800
00F000
01F000
01E000
03E000
03C000
078000
078000
0F0000
0F0000
1E0000
3E0000
3DF000
3FFC00
7FFE00
7FFE00
FC3F00
F81F00
F00F00
F00F00
F00F80
F00F80
F00F80
F00F00
F00F00
F81F00
FC3F00
7FFE00
3FFC00
1FF800
07E000
ENDCHAR
STARTCHAR 055
ENCODING 55
SWIDTH 1584 0
DWIDTH 22 0
BBX 17 31 2 0
BITMAP
FFFF80
FFFF80
FFFF80
FFFF80
F80F80
F80F00
F80F00
F81F00
001F00
001E00
003E00
003E00
003C00
003C00
007C00
007C00
007800
00F800
00F800
00F000
00F000
01F000
01E000
01E000
03E000
03E000
03C000
07C000
07C000
078000
078000
ENDCHAR
STARTCHAR 056
ENCODING 56
SWIDTH 1728 0
DWIDTH 24 0
BBX 18 31 3 0
BITMAP
03F000
0FFE00
3FFF00
3FFF80
7E1F80
7C0780
7807C0
F807C0
F807C0
7807C0
780780
7C0F80
3E1F00
1FFF00
0FFC00
1FFE00
3FFF00
7E0F80
7807C0
F803C0
F003C0
F003C0
F003C0
F003C0
F803C0
F807C0
7E0F80
7FFF80
3FFF00
1FFE00
03F800
ENDCHAR
STARTCHAR 057
ENCODING 57
SWIDTH 1584 0
DWIDTH 22 0
BBX 17 31 3 0
BITMAP
07E000
1FF800
3FFC00
7FFE00
FC3F00
F81F00
F00F00
F00F00
F00F80
F00F80
F00F80
F00F00
F81F00
FC3F00
7FFF00
7FFE00
3FFE00
0FBE00
007C00
007C00
00F800
00F800
01F000
01F000
03E000
03E000
07C000
07C000
078000
0F8000
0F0000
ENDCHAR
STARTCHAR 058
ENCODING 58
SWIDTH 720 0
DWIDTH 10 0
BBX 4 22 3 0
BITMAP
F0
F0
F0
F0
00
00
00
00
00
00
00
00
00
00
00
00
00
00
F0
F0
F0
F0
ENDCHAR
STARTCHAR 059
ENCODING 59
SWIDTH 720 0
DWIDTH 10 0
BBX 4 25 3 -3
BITMAP
F0
F0
F0
F0
00
00
00
00
00
00
00
00
00
00
00
00
00
00
F0
F0
F0
F0
E0
C0
80
ENDCHAR
STARTCHAR 060
ENCODING 60
SWIDTH 1296 0
DWIDTH 18 0
BBX 14 18 2 5
BITMAP
0004
001C
003C
00FC
03FC
07F8
1FE0
3FC0
FF00
FF00
3FC0
1FE0
07F8
01FC
00FC
003C
001C
0004
ENDCHAR
STARTCHAR 061
ENCODING 61
SWIDTH 1440 0
DWIDTH 20 0
BBX 14 11 3 9
BITMAP
FFFC
FFFC
FFFC
FFFC
0000
0000
0000
FFFC
FFFC
FFFC
FFFC
ENDCHAR
STARTCHAR 062
ENCODING 62
SWIDTH 1296 0
DWIDTH 18 0
BBX 13 18 3 5
BITMAP
8000
C000
F000
F800
FE00
7F80
3FC0
0FF0
03F8
07F8
0FF0
3FC0
FF80
FE00
F800
F000
C000
8000
ENDCHAR
STARTCHAR 063
ENCODING 63
SWIDTH 1368 0
DWIDTH 19 0
BBX 16 31 1 0
BITMAP
07E0
1FF8
3FFC
7FFE
7C3E
F81E
F81F
F01F
F01F
001F
001E
003E
003C
007C
00F8
01F0
01F0
03E0
03C0
03C0
07C0
07C0
07C0
0000
0000
0000
0000
07C0
07C0
07C0
07C0
ENDCHAR
STARTCHAR 064
ENCODING 64
SWIDTH 2736 0
DWIDTH 38 0
BBX 32 39 3 -8
BITMAP
001FF800
00FFFF00
03FFFFC0
07FFFFE0
0FF00FF0
1F8001F8
1F0000FC
3E00007C
3C07F03E
7C1FF81E
783FFE1E
787FFE0F
787C3F0F
F0F81F0F
F0F00F0F
F0F00F0F
F0F00F0F
F0F00F0F
F0F00F8F
F0F00F8F
F0F00F8F
F0F00F8F
F0F00F8F
F0F00F8F
F0F00F8F
F0F81F8F
F07C3F8F
787FFFFF
783FFFFE
783FF3FC
7C0FC1F8
3E000000
3F000000
1F800000
0FF00000
07FFFC00
03FFFC00
00FFFC00
001FFC00
ENDCHAR
STARTCHAR 065
ENCODING 65
SWIDTH 2016 0
DWIDTH 28 0
BBX 26 31 1 0
BITMAP
001E0000
001E0000
003F0000
003F0000
007F0000
007F8000
007F8000
00F78000
00F3C000
00F3C000
01E3E000
01E1E000
01E1E000
03C1F000
03C0F000
07C0F000
0780F800
07807800
0F807800
0F007C00
0FFFFC00
1FFFFE00
1FFFFE00
1FFFFE00
3E001F00
3C000F00
7C000F00
7C000F80
78000780
F8000780
F80007C0
ENDCHAR
STARTCHAR 066
ENCODING 66
SWIDTH 2016 0
DWIDTH 28 0
BBX 21 31 4 0
BITMAP
FFFE00
FFFFC0
FFFFE0
FFFFF0
F003F0
F001F0
F000F8
F000F8
F000F8
F000F8
F000F0
F000F0
F003E0
FFFFC0
FFFF80
FFFF80
FFFFE0
F003F0
F000F0
F000F8
F00078
F00078
F00078
F00078
F000F8
F000F8
F003F0
FFFFF0
FFFFE0
FFFFC0
FFFF00
ENDCHAR
STARTCHAR 067
ENCODING 67
SWIDTH 1944 0
DWIDTH 27 0
BBX 21 31 3 0
BITMAP
01FC00
07FF00
0FFFC0
1FFFE0
3F07E0
7E01F0
7C00F8
7800F8
F80078
F80000
F80000
F80000
F80000
F80000
F80000
F80000
F80000
F80000
F80000
F80000
F80000
F80000
F80078
7800F8
7C00F8
7E01F0
3F07E0
1FFFE0
0FFFC0
07FF00
01FC00
ENDCHAR
STARTCHAR 068
ENCODING 68
SWIDTH 2016 0
DWIDTH 28 0
BBX 21 31 4 0
BITMAP
FFFC00
FFFF00
FFFFC0
FFFFE0
F007E0
F003F0
F001F0
F000F8
F000F8
F00078
F00078
F00078
F00078
F00078
F00078
F00078
F00078
F00078
F00078
F00078
F00078
F00078
F000F8
F000F8
F001F0
F003F0
F007E0
FFFFE0
FFFFC0
FFFF00
FFFC00
ENDCHAR
STARTCHAR 069
ENCODING 69
SWIDTH 1872 0
DWIDTH 26 0
BBX 19 31 4 0
BITMAP
FFFFE0
FFFFE0
FFFFE0
FFFFE0
F00000
F00000
F00000
F00000
F00000
F00000
F00000
F00000
F00000
F00000
FFFF80
FFFF80
FFFF80
FFFF80
F00000
F00000
F00000
F00000
F00000
F00000
F00000
F00000
F00000
FFFFE0
FFFFE0
FFFFE0
FFFFE0
ENDCHAR
STARTCHAR 070
ENCODING 70
SWIDTH 1728 0
DWIDTH 24 0
BBX 19 31 4 0
BITMAP
FFFFE0
FFFFE0
FFFFE0
FFFFE0
F00000
F00000
F00000
F00000
F00000
F00000
F00000
F00000
F00000
F00000
FFFF80
FFFF80
FFFF80
FFFF80
F00000
F00000
F00000
F00000
F00000
F00000
F00000
F00000
F00000
F00000
F00000
F00000
F00000
ENDCHAR
STARTCHAR 071
ENCODING 71
SWIDTH 2016 0
DWIDTH 28 0
BBX 22 31 3 0
BITMAP
01FC00
07FF00
0FFFC0
1FFFE0
3F07F0
7E01F0
7C00F8
7800F8
F80078
F80000
F80000
F80000
F80000
F80000
F81FFC
F81FFC
F81FFC
F81FFC
F8007C
F8007C
F8007C
F8007C
F80078
7800F8
7C00F8
7E01F0
3F03F0
1FFFE0
0FFFC0
07FF80
01FC00
ENDCHAR
STARTCHAR 072
ENCODING 72
SWIDTH 2088 0
DWIDTH 29 0
BBX 21 31 4 0
BITMAP
F00078
F00078
F00078
F00078
F00078
F00078
F00078
F00078
F00078
F00078
F00078
F00078
F00078
F00078
FFFFF8
FFFFF8
FFFFF8
FFFFF8
F00078
F00078
F00078
F00078
F00078
F00078
F00078
F00078
F00078
F00078
F00078
F00078
F00078
ENDCHAR
STARTCHAR 073
ENCODING 73
SWIDTH 864 0
DWIDTH 12 0
BBX 4 31 4 0
BITMAP
F0
F0
F0
F0
F0
F0
F0
F0
F0
F0
F0
F0
F0
F0
F0
F0
F0
F0
F0
F0
F0
F0
F0
F0
F0
F0
F0
F0
F0
F0
F0
ENDCHAR
STARTCHAR 074
ENCODING 74
SWIDTH 1584 0
DWIDTH 22 0
BBX 17 31 1 0
BITMAP
000780
000780
000780
000780
000780
000780
000780
000780
000780
000780
000780
000780
000780
000780
000780
000780
000780
000780
000780
000780
000780
000780
000780
000F80
000F80
301F00
783F00
FFFE00
7FFC00
3FF800
0FE000
ENDCHAR
STARTCHAR 075
ENCODING 75
SWIDTH 2016 0
DWIDTH 28 0
BBX 23 31 4 0
BITMAP
F000F8
F001F8
F001F0
F003E0
F007C0
F00F80
F00F80
F01F00
F03E00
F07C00
F0F800
F0F800
F1F000
F3F800
F7F800
F7FC00
FFFE00
FF3E00
FE1F00
FC1F00
F80F80
F00FC0
F007C0
F003E0
F003E0
F001F0
F001F8
F000F8
F000FC
F0007C
F0003E
ENDCHAR
STARTCHAR 076
ENCODING 76
SWIDTH 1800 0
DWIDTH 25 0
BBX 19 31 4 0
BITMAP
F00000
F00000
F00000
F00000
F00000
F00000
F00000
F00000
F00000
F00000
F00000
F00000
F00000
F00000
F00000
F00000
F00000
F00000
F00000
F00000
F00000
F00000
F00000
F00000
F00000
F00000
F00000
FFFFE0
FFFFE0
FFFFE0
FFFFE0
ENDCHAR
STARTCHAR 077
ENCODING 77
SWIDTH 2448 0
DWIDTH 34 0
BBX 26 31 4 0
BITMAP
F00007C0
F00007C0
F80007C0
F8000FC0
FC000FC0
FC001FC0
FE001FC0
FE003FC0
FF003FC0
FF003FC0
FF007BC0
F7807BC0
F780F3C0
F7C0F3C0
F3C1E3C0
F3E1E3C0
F1E3E3C0
F1E3C3C0
F0F3C3C0
F0F783C0
F07F83C0
F07F03C0
F07F03C0
F03F03C0
F03E03C0
F01E03C0
F01C03C0
F00003C0
F00003C0
F00003C0
F00003C0
ENDCHAR
STARTCHAR 078
ENCODING 78
SWIDTH 2160 0
DWIDTH 30 0
BBX 22 31 4 0
BITMAP
F0003C
F8003C
F8003C
FC003C
FC003C
FE003C
FF003C
FF003C
FF803C
F7C03C
F7C03C
F3E03C
F1E03C
F1F03C
F0F83C
F0783C
F07C3C
F03E3C
F01E3C
F01F3C
F00F3C
F00FBC
F007FC
F003FC
F003FC
F001FC
F000FC
F000FC
F0007C
F0007C
F0003C
ENDCHAR
STARTCHAR 079
ENCODING 79
SWIDTH 2016 0
DWIDTH 28 0
BBX 22 31 3 0
BITMAP
01FC00
07FF80
0FFFC0
1FFFE0
3F07F0
7E01F0
7C00F8
780078
F80078
F8007C
F8007C
F8007C
F8007C
F8007C
F8007C
F8007C
F8007C
F8007C
F8007C
F8007C
F8007C
F8007C
F80078
780078
7C00F8
7E01F0
3F07F0
1FFFE0
0FFFC0
07FF80
01FC00
ENDCHAR
STARTCHAR 080
ENCODING 80
SWIDTH 1944 0
DWIDTH 27 0
BBX 21 31 4 0
BITMAP
FFFE00
FFFF80
FFFFC0
FFFFE0
F003F0
F001F0
F000F0
F000F8
F000F8
F000F8
F000F8
F000F8
F000F0
F001F0
F003F0
FFFFE0
FFFFC0
FFFF80
FFFE00
F00000
F00000
F00000
F00000
F00000
F00000
F00000
F00000
F00000
F00000
F00000
F00000
ENDCHAR
STARTCHAR 081
ENCODING 81
SWIDTH 2016 0
DWIDTH 28 0
BBX 24 31 3 0
BITMAP
01FC00
07FF80
0FFFC0
1FFFE0
3F07F0
7E01F0
7C00F8
780078
F80078
F8007C
F8007C
F8007C
F8007C
F8007C
F8007C
F8007C
F8007C
F8007C
F8007C
F8007C
F80C7C
F81F7C
F81FF8
780FF8
7C03F8
7E01F8
3F07FC
1FFFFE
0FFFDF
07FF8F
01FC06
ENDCHAR
STARTCHAR 082
ENCODING 82
SWIDTH 2016 0
DWIDTH 28 0
BBX 22 31 4 0
BITMAP
FFFE00
FFFF80
FFFFC0
FFFFE0
F003F0
F001F0
F000F0
F000F8
F000F8
F000F8
F000F8
F000F0
F001F0
F003F0
FFFFE0
FFFFC0
FFFF80
FFFE00
F01E00
F01F00
F00F80
F00F80
F007C0
F007C0
F003E0
F003E0
F001F0
F001F0
F000F8
F000F8
F0007C
ENDCHAR
STARTCHAR 083
ENCODING 83
SWIDTH 1872 0
DWIDTH 26 0
BBX 22 31 2 0
BITMAP
00FF00
07FFE0
0FFFF0
1FFFF8
3F81F8
3E0070
3C0000
7C0000
7C0000
7C0000
7C0000
3E0000
3F0000
3FF800
1FFF80
0FFFE0
01FFF0
001FF8
0001FC
00007C
00003C
00003C
00003C
00003C
20007C
7800FC
7E01F8
FFFFF0
3FFFE0
1FFFC0
03FE00
ENDCHAR
STARTCHAR 084
ENCODING 84
SWIDTH 1512 0
DWIDTH 21 0
BBX 21 31 0 0
BITMAP
FFFFF8
FFFFF8
FFFFF8
FFFFF8
00F800
00F800
00F800
00F800
00F800
00F800
00F800
00F800
00F800
00F800
00F800
00F800
00F800
00F800
00F800
00F800
00F800
00F800
00F800
00F800
00F800
00F800
00F800
00F800
00F800
00F800
00F800
ENDCHAR
STARTCHAR 085
ENCODING 85
SWIDTH 2016 0
DWIDTH 28 0
BBX 22 31 3 0
BITMAP
F8003C
F8003C
F8003C
F8003C
F8003C
F8003C
F8003C
F8003C
F8003C
F8003C
F8003C
F8003C
F8003C
F8003C
F8003C
F8003C
F8003C
F8003C
F8003C
F8003C
F8003C
F8007C
78007C
780078
7C00F8
3E01F8
3F03F0
1FFFE0
0FFFE0
07FF80
01FE00
ENDCHAR
STARTCHAR 086
ENCODING 86
SWIDTH 1800 0
DWIDTH 25 0
BBX 23 31 1 0
BITMAP
F0001E
F8001E
F8003E
78003C
7C003C
7C007C
3C007C
3E0078
3E00F8
1E00F8
1E00F0
1F01F0
0F01F0
0F01E0
0F81E0
0783E0
0783C0
07C3C0
03C7C0
03C780
03C780
01EF80
01EF00
01EF00
01FF00
00FE00
00FE00
00FE00
007C00
007C00
007C00
ENDCHAR
STARTCHAR 087
ENCODING 87
SWIDTH 2592 0
DWIDTH 36 0
BBX 35 31 1 0
BITMAP
F000E003E0
F001E003C0
F801E003C0
F801F003C0
7801F007C0
7803F00780
7C03F00780
7C03F80780
3C03F80F80
3C07F80F00
3C07B80F00
3E07BC0F00
1E073C0F00
1E0F3C1F00
1E0F1C1E00
1F0F1E1E00
0F1E1E1E00
0F1E1E3E00
0F1E0E3C00
0F1E0F3C00
07BC0F3C00
07BC0F3C00
07BC077800
07B807F800
03F807F800
03F803F800
03F803F000
03F003F000
03F003F000
01F001F000
01F001E000
ENDCHAR
STARTCHAR 088
ENCODING 88
SWIDTH 1728 0
DWIDTH 24 0
BBX 23 31 1 0
BITMAP
F8007C
78007C
7C00F8
3E00F0
3E01F0
1F01E0
0F03E0
0F87C0
078780
07CF80
03EF00
01FF00
01FE00
00FC00
00FC00
007C00
00FC00
00FE00
01FE00
03FF00
03CF80
07C780
0787C0
0F83C0
1F03E0
1E01F0
3E00F0
3C00F8
7C0078
F8007C
F8003E
ENDCHAR
STARTCHAR 089
ENCODING 89
SWIDTH 1584 0
DWIDTH 22 0
BBX 22 31 0 0
BITMAP
F0007C
F80078
7800F8
7C00F0
3C01F0
3E01E0
1E03E0
1F03C0
0F07C0
0F8780
078F80
07CF00
03CF00
03FE00
01FE00
01FC00
00FC00
00F800
007800
007800
007800
007800
007800
007800
007800
007800
007800
007800
007800
007800
007800
ENDCHAR
STARTCHAR 090
ENCODING 90
SWIDTH 1656 0
DWIDTH 23 0
BBX 19 31 3 0
BITMAP
FFFFC0
FFFFC0
FFFFC0
FFFFC0
0007C0
000F80
001F80
001F00
003E00
003E00
007C00
007C00
00F800
01F800
01F000
03E000
03E000
07C000
07C000
0F8000
1F8000
1F0000
3E0000
3E0000
7C0000
7C0000
F80000
FFFFE0
FFFFE0
FFFFE0
FFFFE0
ENDCHAR
STARTCHAR 091
ENCODING 91
SWIDTH 936 0
DWIDTH 13 0
BBX 8 41 4 -7
BITMAP
FF
FF
FF
FF
F0
F0
F0
F0
F0
F0
F0
F0
F0
F0
F0
F0
F0
F0
F0
F0
F0
F0
F0
F0
F0
F0
F0
F0
F0
F0
F0
F0
F0
F0
F0
F0
F0
FF
FF
FF
FF
ENDCHAR
STARTCHAR 092
ENCODING 92
SWIDTH 1152 0
DWIDTH 16 0
BBX 16 40 0 -6
BITMAP
C000
E000
E000
F000
F000
F000
7800
7800
7800
3C00
3C00
3C00
1E00
1E00
1E00
0F00
0F00
0F80
0780
0780
07C0
03C0
03C0
01E0
01E0
01E0
00F0
00F0
00F0
0078
0078
0078
003C
003C
003E
001E
001E
000F
000F
000F
ENDCHAR
STARTCHAR 093
ENCODING 93
SWIDTH 936 0
DWIDTH 13 0
BBX 8 41 1 -7
BITMAP
FF
FF
FF
FF
0F
0F
0F
0F
0F
0F
0F
0F
0F
0F
0F
0F
0F
0F
0F
0F
0F
0F
0F
0F
0F
0F
0F
0F
0F
0F
0F
0F
0F
0F
0F
0F
0F
FF
FF
FF
FF
ENDCHAR
STARTCHAR 094
ENCODING 94
SWIDTH 1584 0
DWIDTH 22 0
BBX 16 11 3 21
BITMAP
0180
03C0
07C0
07E0
0FF0
1FF0
1E78
3E7C
7C3E
783E
F81F
ENDCHAR
STARTCHAR 095
ENCODING 95
SWIDTH 1368 0
DWIDTH 19 0
BBX 18 4 0 -4
BITMAP
FFFFC0
FFFFC0
FFFFC0
FFFFC0
ENDCHAR
STARTCHAR 096
ENCODING 96
SWIDTH 936 0
DWIDTH 13 0
BBX 9 10 2 26
BITMAP
2000
7000
F800
7C00
7C00
3E00
1F00
0F80
0700
0200
ENDCHAR
STARTCHAR 097
ENCODING 97
SWIDTH 1656 0
DWIDTH 23 0
BBX 18 22 2 0
BITMAP
03F800
1FFE00
3FFF00
3FFF80
1C0F80
080780
0007C0
0003C0
0003C0
0FFFC0
3FFFC0
7FFFC0
7C03C0
F803C0
F003C0
F003C0
F003C0
7803C0
7C0FC0
7FFFC0
3FFBC0
07E3C0
ENDCHAR
STARTCHAR 098
ENCODING 98
SWIDTH 1656 0
DWIDTH 23 0
BBX 18 31 3 0
BITMAP
F80000
F80000
F80000
F80000
F80000
F80000
F80000
F80000
F80000
F8F800
FBFE00
FFFF00
FFFF80
FE1F80
F80F80
F80780
F807C0
F807C0
F807C0
F807C0
F807C0
F807C0
F807C0
F807C0
F807C0
F80F80
FE1F80
FFFF80
FFFF00
FBFE00
F9F800
ENDCHAR
STARTCHAR 099
ENCODING 99
SWIDTH 1512 0
DWIDTH 21 0
BBX 17 22 3 0
BITMAP
07F800
1FFE00
3FFF00
7FFF80
7E0F00
F80600
F80000
F00000
F00000
F00000
F00000
F00000
F00000
F00000
F00000
F80000
F80600
7E0F00
7FFF80
3FFF00
1FFE00
03F800
ENDCHAR
STARTCHAR 100
ENCODING 100
SWIDTH 1656 0
DWIDTH 23 0
BBX 17 31 3 0
BITMAP
000780
000780
000780
000780
000780
000780
000780
000780
000780
0FC780
3FE780
7FF780
7FFF80
FC1F80
F80F80
F00F80
F00780
F00780
F00780
F00780
F00780
F00780
F00780
F00780
F00F80
F80F80
FC1F80
7FFF80
3FF780
3FE780
0FC780
ENDCHAR
STARTCHAR 101
ENCODING 101
SWIDTH 1656 0
DWIDTH 23 0
BBX 18 22 3 0
BITMAP
07F000
1FFC00
3FFE00
7FFF00
7C1F00
F80F80
F00780
F00780
F00780
F00780
FFFFC0
FFFFC0
FFFFC0
F00000
F00000
F00000
F80200
7E0F00
7FFF80
3FFF00
1FFE00
03F000
ENDCHAR
STARTCHAR 102
ENCODING 102
SWIDTH 1008 0
DWIDTH 14 0
BBX 11 31 2 0
BITMAP
07E0
1FE0
1FE0
3FE0
3E00
3C00
3C00
3C00
3C00
FFE0
FFE0
FFE0
FFE0
3C00
3C00
3C00
3C00
3C00
3C00
3C00
3C00
3C00
3C00
3C00
3C00
3C00
3C00
3C00
3C00
3C00
3C00
ENDCHAR
STARTCHAR 103
ENCODING 103
SWIDTH 1656 0
DWIDTH 23 0
BBX 17 31 3 -9
BITMAP
0FC780
3FE780
7FF780
7FFF80
FC1F80
F80F80
F00F80
F00780
F00780
F00780
F00780
F00780
F00780
F00780
F00780
F00F80
F80F80
FC1F80
7FFF80
3FF780
3FE780
0FC780
000780
000780
000F80
301F00
7C3F00
FFFE00
7FFC00
3FF800
07E000
ENDCHAR
STARTCHAR 104
ENCODING 104
SWIDTH 1728 0
DWIDTH 24 0
BBX 18 31 3 0
BITMAP
F80000
F80000
F80000
F80000
F80000
F80000
F80000
F80000
F80000
F8F800
FBFE00
FFFF00
FFFF80
FE1F80
F80780
F807C0
F807C0
F803C0
F803C0
F803C0
F803C0
F803C0
F803C0
F803C0
F803C0
F803C0
F803C0
F803C0
F803C0
F803C0
F803C0
ENDCHAR
STARTCHAR 105
ENCODING 105
SWIDTH 792 0
DWIDTH 11 0
BBX 5 30 3 0
BITMAP
F8
F8
F8
F8
00
00
00
00
F8
F8
F8
F8
F8
F8
F8
F8
F8
F8
F8
F8
F8
F8
F8
F8
F8
F8
F8
F8
F8
F8
ENDCHAR
STARTCHAR 106
ENCODING 106
SWIDTH 864 0
DWIDTH 12 0
BBX 8 39 0 -9
BITMAP
0F
0F
0F
0F
00
00
00
00
0F
0F
0F
0F
0F
0F
0F
0F
0F
0F
0F
0F
0F
0F
0F
0F
0F
0F
0F
0F
0F
0F
0F
0F
0F
0F
0F
FF
FF
FE
F8
ENDCHAR
STARTCHAR 107
ENCODING 107
SWIDTH 1656 0
DWIDTH 23 0
BBX 19 31 3 0
BITMAP
F80000
F80000
F80000
F80000
F80000
F80000
F80000
F80000
F80000
F807C0
F80F80
F81F00
F81E00
F83C00
F87C00
F8F800
F9F000
FBE000
FBF000
FFF800
FF7800
FE7C00
FE3C00
FC3E00
F81F00
F80F00
F80F80
F80780
F807C0
F803E0
F801E0
ENDCHAR
STARTCHAR 108
ENCODING 108
SWIDTH 864 0
DWIDTH 12 0
BBX 8 31 3 0
BITMAP
F8
F8
F8
F8
F8
F8
F8
F8
F8
F8
F8
F8
F8
F8
F8
F8
F8
F8
F8
F8
F8
F8
F8
F8
F8
F8
F8
7F
7F
3F
1F
ENDCHAR
STARTCHAR 109
ENCODING 109
SWIDTH 2664 0
DWIDTH 37 0
BBX 31 22 3 0
BITMAP
F8F807C0
FBFE1FF0
FFFF3FF8
FFFFFFFC
FE1FF0FC
F80FE07C
F807C03E
F807C03E
F807C03E
F807C03E
F807C03E
F807C03E
F807C03E
F807C03E
F807C03E
F807C03E
F807C03E
F807C03E
F807C03E
F807C03E
F807C03E
F807C03E
ENDCHAR
STARTCHAR 110
ENCODING 110
SWIDTH 1728 0
DWIDTH 24 0
BBX 18 22 3 0
BITMAP
F8F800
FBFE00
FFFF00
FFFF80
FE1F80
F80780
F807C0
F807C0
F803C0
F803C0
F803C0
F803C0
F803C0
F803C0
F803C0
F803C0
F803C0
F803C0
F803C0
F803C0
F803C0
F803C0
ENDCHAR
STARTCHAR 111
ENCODING 111
SWIDTH 1656 0
DWIDTH 23 0
BBX 18 22 3 0
BITMAP
07F000
1FFC00
3FFE00
7FFF00
7C1F80
F80F80
F80780
F007C0
F007C0
F007C0
F007C0
F007C0
F007C0
F007C0
F007C0
F80780
F80F80
7C1F80
7FFF00
3FFE00
1FFC00
07F000
ENDCHAR
STARTCHAR 112
ENCODING 112
SWIDTH 1656 0
DWIDTH 23 0
BBX 18 31 3 -9
BITMAP
F8F800
FBFE00
FFFF00
FFFF80
FE1F80
F80F80
F80780
F807C0
F807C0
F807C0
F807C0
F807C0
F807C0
F807C0
F807C0
F807C0
F80F80
FE1F80
FFFF80
FFFF00
FBFE00
F8F800
F80000
F80000
F80000
F80000
F80000
F80000
F80000
F80000
F80000
ENDCHAR
STARTCHAR 113
ENCODING 113
SWIDTH 1656 0
DWIDTH 23 0
BBX 17 31 3 -9
BITMAP
0FC780
3FE780
7FF780
7FFF80
FC1F80
F80F80
F00F80
F00780
F00780
F00780
F00780
F00780
F00780
F00780
F00780
F00F80
F80F80
FC1F80
7FFF80
3FF780
3FE780
0FC780
000780
000780
000780
000780
000780
000780
000780
000780
000780
ENDCHAR
STARTCHAR 114
ENCODING 114
SWIDTH 1296 0
DWIDTH 18 0
BBX 15 22 3 0
BITMAP
F8F8
FBFE
FFFE
FFFC
FE18
F800
F800
F800
F800
F800
F800
F800
F800
F800
F800
F800
F800
F800
F800
F800
F800
F800
ENDCHAR
STARTCHAR 115
ENCODING 115
SWIDTH 1584 0
DWIDTH 22 0
BBX 18 22 2 0
BITMAP
07F800
1FFF00
3FFFC0
7FFFC0
7C0F80
780100
780000
780000
7E0000
7FFE00
3FFF00
1FFF80
01FFC0
0007C0
0003C0
2003C0
7003C0
FC0FC0
FFFF80
7FFF80
1FFF00
07F800
ENDCHAR
STARTCHAR 116
ENCODING 116
SWIDTH 1008 0
DWIDTH 14 0
BBX 10 28 2 0
BITMAP
3C00
3C00
3C00
3C00
3C00
3C00
FFC0
FFC0
FFC0
FFC0
3C00
3C00
3C00
3C00
3C00
3C00
3C00
3C00
3C00
3C00
3C00
3C00
3C00
3C00
3FC0
3FC0
1FC0
0FC0
ENDCHAR
STARTCHAR 117
ENCODING 117
SWIDTH 1728 0
DWIDTH 24 0
BBX 18 22 3 0
BITMAP
F807C0
F807C0
F807C0
F807C0
F807C0
F807C0
F807C0
F807C0
F807C0
F807C0
F807C0
F807C0
F807C0
F807C0
F807C0
7807C0
7C07C0
7E1FC0
3FFFC0
3FFFC0
1FF7C0
07E7C0
ENDCHAR
STARTCHAR 118
ENCODING 118
SWIDTH 1584 0
DWIDTH 22 0
BBX 19 22 1 0
BITMAP
F801E0
7801E0
7803E0
7C03C0
3C03C0
3C07C0
3E0780
1E0780
1E0F00
0F0F00
0F0F00
0F1E00
079E00
079E00
07BC00
03FC00
03FC00
01F800
01F800
01F000
00F000
00F000
ENDCHAR
STARTCHAR 119
ENCODING 119
SWIDTH 2376 0
DWIDTH 33 0
BBX 30 22 2 0
BITMAP
F007007C
F007807C
F80F8078
780F8078
780FC0F8
781FC0F0
7C1FC0F0
3C1DE0F0
3C3DE1E0
3C3CF1E0
1E38F1E0
1E78F1C0
1E787BC0
0E707BC0
0FF07BC0
0FF03F80
07E03F80
07E03F80
07E01F00
07C01F00
03C00F00
03C00E00
ENDCHAR
STARTCHAR 120
ENCODING 120
SWIDTH 1584 0
DWIDTH 22 0
BBX 19 22 2 0
BITMAP
F807C0
7807C0
7C0F80
3E0F00
1E1F00
1F3E00
0F3C00
07FC00
07F800
03F000
01F000
03F000
03F000
07F800
0FFC00
0F3C00
1F1E00
3E1F00
3C0F00
7C0F80
F807C0
F003E0
ENDCHAR
STARTCHAR 121
ENCODING 121
SWIDTH 1512 0
DWIDTH 21 0
BBX 19 31 1 -9
BITMAP
F801E0
7803E0
7803C0
7C03C0
3C03C0
3C0780
3E0780
1E0780
1E0F00
0F0F00
0F0F00
0F1E00
079E00
079E00
07FC00
03FC00
03FC00
01F800
01F800
01F800
00F000
00F000
00F000
01E000
01E000
03E000
07C000
1FC000
1F8000
1F0000
1E0000
ENDCHAR
STARTCHAR 122
ENCODING 122
SWIDTH 1512 0
DWIDTH 21 0
BBX 16 22 3 0
BITMAP
FFFE
FFFE
FFFE
FFFE
003E
007C
0078
00F8
01F0
03E0
03C0
07C0
0F80
1F00
1E00
3E00
7C00
F800
FFFF
FFFF
FFFF
FFFF
ENDCHAR
STARTCHAR 123
ENCODING 123
SWIDTH 1080 0
DWIDTH 15 0
BBX 12 43 3 -8
BITMAP
00F0
03F0
07F0
0FF0
0F80
0F00
0F00
0F00
0F00
0F00
0F00
0F00
0F00
0F00
0F00
0F00
1F00
1F00
3E00
FE00
FC00
FC00
FE00
3E00
1F00
1F00
0F00
0F00
0F00
0F00
0F00
0F00
0F00
0F00
0F00
0F00
0F00
0F00
0F80
07F0
07F0
03F0
00F0
ENDCHAR
STARTCHAR 124
ENCODING 124
SWIDTH 864 0
DWIDTH 12 0
BBX 4 38 4 -4
BITMAP
F0
F0
F0
F0
F0
F0
F0
F0
F0
F0
F0
F0
F0
F0
F0
F0
F0
F0
F0
F0
F0
F0
F0
F0
F0
F0
F0
F0
F0
F0
F0
F0
F0
F0
F0
F0
F0
F0
ENDCHAR
STARTCHAR 125
ENCODING 125
SWIDTH 1080 0
DWIDTH 15 0
BBX 12 43 1 -8
BITMAP
E000
F800
FC00
FE00
3E00
1F00
0F00
0F00
0F00
0F00
0F00
0F00
0F00
0F00
0F00
0F00
0F00
0F00
0F80
0FF0
07F0
07F0
07F0
0FC0
0F00
0F00
0F00
0F00
0F00
0F00
0F00
0F00
0F00
0F00
0F00
0F00
0F00
1F00
3E00
FE00
FC00
F800
E000
ENDCHAR
STARTCHAR 126
ENCODING 126
SWIDTH 1584 0
DWIDTH 22 0
BBX 16 7 3 11
BITMAP
3E07
7F07
7FCF
FFFF
F1FF
F0FE
F03C
ENDCHAR
STARTCHAR 127
ENCODING 127
SWIDTH 2232 0
DWIDTH 31 0
BBX 11 32 1 1
BITMAP
FFE0
FFE0
C0E0
C0E0
C0E0
C0E0
C0E0
C0E0
C0E0
C0E0
C0E0
C0E0
C0E0
C0E0
C0E0
C0E0
C0E0
C0E0
C0E0
C0E0
C0E0
C0E0
C0E0
C0E0
C0E0
C0E0
C0E0
C0E0
C0E0
C0E0
FFE0
FFE0
ENDCHAR
STARTCHAR 128
ENCODING 128
SWIDTH 0 0
DWIDTH 0 0
BBX 0 0 0 0
BITMAP
ENDCHAR
STARTCHAR 129
ENCODING 129
SWIDTH 0 0
DWIDTH 0 0
BBX 0 0 0 0
BITMAP
ENDCHAR
STARTCHAR 130
ENCODING 130
SWIDTH 0 0
DWIDTH 0 0
BBX 0 0 0 0
BITMAP
ENDCHAR
STARTCHAR 131
ENCODING 131
SWIDTH 0 0
DWIDTH 0 0
BBX 0 0 0 0
BITMAP
ENDCHAR
STARTCHAR 132
ENCODING 132
SWIDTH 0 0
DWIDTH 0 0
BBX 0 0 0 0
BITMAP
ENDCHAR
STARTCHAR 133
ENCODING 133
SWIDTH 0 0
DWIDTH 0 0
BBX 0 0 0 0
BITMAP
ENDCHAR
STARTCHAR 134
ENCODING 134
SWIDTH 0 0
DWIDTH 0 0
BBX 0 0 0 0
BITMAP
ENDCHAR
STARTCHAR 135
ENCODING 135
SWIDTH 0 0
DWIDTH 0 0
BBX 0 0 0 0
BITMAP
ENDCHAR
STARTCHAR 136
ENCODING 136
SWIDTH 0 0
DWIDTH 0 0
BBX 0 0 0 0
BITMAP
ENDCHAR
STARTCHAR 137
ENCODING 137
SWIDTH 0 0
DWIDTH 0 0
BBX 0 0 0 0
BITMAP
ENDCHAR
STARTCHAR 138
ENCODING 138
SWIDTH 0 0
DWIDTH 0 0
BBX 0 0 0 0
BITMAP
ENDCHAR
STARTCHAR 139
ENCODING 139
SWIDTH 0 0
DWIDTH 0 0
BBX 0 0 0 0
BITMAP
ENDCHAR
STARTCHAR 140
ENCODING 140
SWIDTH 0 0
DWIDTH 0 0
BBX 0 0 0 0
BITMAP
ENDCHAR
STARTCHAR 141
ENCODING 141
SWIDTH 0 0
DWIDTH 0 0
BBX 0 0 0 0
BITMAP
ENDCHAR
STARTCHAR 142
ENCODING 142
SWIDTH 0 0
DWIDTH 0 0
BBX 0 0 0 0
BITMAP
ENDCHAR
STARTCHAR 143
ENCODING 143
SWIDTH 0 0
DWIDTH 0 0
BBX 0 0 0 0
BITMAP
ENDCHAR
STARTCHAR 144
ENCODING 144
SWIDTH 0 0
DWIDTH 0 0
BBX 0 0 0 0
BITMAP
ENDCHAR
STARTCHAR 145
ENCODING 145
SWIDTH 0 0
DWIDTH 0 0
BBX 0 0 0 0
BITMAP
ENDCHAR
STARTCHAR 146
ENCODING 146
SWIDTH 0 0
DWIDTH 0 0
BBX 0 0 0 0
BITMAP
ENDCHAR
STARTCHAR 147
ENCODING 147
SWIDTH 0 0
DWIDTH 0 0
BBX 0 0 0 0
BITMAP
ENDCHAR
STARTCHAR 148
ENCODING 148
SWIDTH 0 0
DWIDTH 0 0
BBX 0 0 0 0
BITMAP
ENDCHAR
STARTCHAR 149
ENCODING 149
SWIDTH 0 0
DWIDTH 0 0
BBX 0 0 0 0
BITMAP
ENDCHAR
STARTCHAR 150
ENCODING 150
SWIDTH 0 0
DWIDTH 0 0
BBX 0 0 0 0
BITMAP
ENDCHAR
STARTCHAR 151
ENCODING 151
SWIDTH 0 0
DWIDTH 0 0
BBX 0 0 0 0
BITMAP
ENDCHAR
STARTCHAR 152
ENCODING 152
SWIDTH 0 0
DWIDTH 0 0
BBX 0 0 0 0
BITMAP
ENDCHAR
STARTCHAR 153
ENCODING 153
SWIDTH 0 0
DWIDTH 0 0
BBX 0 0 0 0
BITMAP
ENDCHAR
STARTCHAR 154
ENCODING 154
SWIDTH 0 0
DWIDTH 0 0
BBX 0 0 0 0
BITMAP
ENDCHAR
STARTCHAR 155
ENCODING 155
SWIDTH 0 0
DWIDTH 0 0
BBX 0 0 0 0
BITMAP
ENDCHAR
STARTCHAR 156
ENCODING 156
SWIDTH 0 0
DWIDTH 0 0
BBX 0 0 0 0
BITMAP
ENDCHAR
STARTCHAR 157
ENCODING 157
SWIDTH 0 0
DWIDTH 0 0
BBX 0 0 0 0
BITMAP
ENDCHAR
STARTCHAR 158
ENCODING 158
SWIDTH 0 0
DWIDTH 0 0
BBX 0 0 0 0
BITMAP
ENDCHAR
STARTCHAR 159
ENCODING 159
SWIDTH 0 0
DWIDTH 0 0
BBX 0 0 0 0
BITMAP
ENDCHAR
STARTCHAR 160
ENCODING 160
SWIDTH 504 0
DWIDTH 7 0
BBX 0 0 0 0
BITMAP
ENDCHAR
STARTCHAR 161
ENCODING 161
SWIDTH 720 0
DWIDTH 10 0
BBX 4 31 3 -9
BITMAP
F0
F0
F0
F0
00
00
00
00
F0
F0
F0
F0
F0
F0
F0
F0
F0
F0
F0
F0
F0
F0
F0
F0
F0
F0
F0
F0
F0
F0
F0
ENDCHAR
STARTCHAR 162
ENCODING 162
SWIDTH 1512 0
DWIDTH 21 0
BBX 16 28 3 -3
BITMAP
03E0
03E0
03E0
07F0
1FFC
3FFF
7FFF
7FFE
FBE4
F3E0
F3E0
F3E0
F3E0
F3E0
F3E0
F3E0
F3E0
F3E0
FBE0
FBE4
7FFE
7FFF
3FFF
1FFC
07F0
03E0
03E0
03E0
ENDCHAR
STARTCHAR 163
ENCODING 163
SWIDTH 1800 0
DWIDTH 25 0
BBX 22 31 2 0
BITMAP
007F00
01FFC0
07FFF0
07FFF0
0FC1F8
0F80F8
1F007C
1F007C
1E007C
1E0000
1E0000
1E0000
1E0000
1E0000
1E0000
1E0000
FFFF80
FFFF80
FFFF80
1E0000
1E0000
1E0000
1E0000
1E0000
1E0000
1E0000
3C0000
FFFFFC
FFFFFC
FFFFFC
FFFFFC
ENDCHAR
STARTCHAR 164
ENCODING 164
SWIDTH 1800 0
DWIDTH 25 0
BBX 21 21 2 4
BITMAP
3000C0
79FDE0
FFFFF0
7FFFF0
3FFFE0
1F07C0
3E03C0
3C01E0
3C01E0
3C01E0
3C01E0
3C01E0
3C01E0
3E03C0
1F07C0
3FFFE0
7FFFF0
FFFFF8
79FDF0
3000E0
000040
ENDCHAR
STARTCHAR 165
ENCODING 165
SWIDTH 1584 0
DWIDTH 22 0
BBX 22 31 0 0
BITMAP
F0007C
F80078
7800F8
7C00F0
3C01F0
3E01E0
1E03E0
1F03C0
0F87C0
0F8780
07CF80
03CF00
03FF00
01FE00
01FC00
00FC00
00F800
007800
007800
0FFFC0
0FFFC0
0FFFC0
007800
007800
007800
0FFFC0
0FFFC0
0FFFC0
007800
007800
007800
ENDCHAR
STARTCHAR 166
ENCODING 166
SWIDTH 864 0
DWIDTH 12 0
BBX 4 38 4 -4
BITMAP
F0
F0
F0
F0
F0
F0
F0
F0
F0
F0
F0
F0
F0
F0
F0
00
00
00
00
00
00
00
00
00
F0
F0
F0
F0
F0
F0
F0
F0
F0
F0
F0
F0
F0
F0
ENDCHAR
STARTCHAR 167
ENCODING 167
SWIDTH 1800 0
DWIDTH 25 0
BBX 21 35 2 -4
BITMAP
01FC00
0FFF80
1FFFE0
1FFFC0
3F07C0
3C0180
3C0000
3C0000
3E0000
3F0000
3FE000
1FFF00
3FFFC0
7FFFE0
7F3FF0
F803F0
F800F8
F000F8
F800F8
F800F8
7E00F0
7FFBF0
3FFFE0
0FFFC0
00FFC0
0007E0
0003E0
0001E0
0001E0
1003E0
3E07E0
7FFFC0
7FFF80
1FFF00
07FC00
ENDCHAR
STARTCHAR 168
ENCODING 168
SWIDTH 1224 0
DWIDTH 17 0
BBX 13 4 2 26
BITMAP
F078
F078
F078
F078
ENDCHAR
STARTCHAR 169
ENCODING 169
SWIDTH 2160 0
DWIDTH 30 0
BBX 26 26 2 7
BITMAP
007F8000
03FFF000
07FFF800
0FC0FC00
1F001E00
3C000F00
3C1F0700
787FC780
70FFC380
70F18380
F1E003C0
F1E003C0
F1E003C0
F1E003C0
F1E003C0
F1E003C0
70F1C380
70FFC380
787FC780
381F0700
3C000F00
1E003E00
0FC0FC00
07FFF800
03FFF000
007F8000
ENDCHAR
STARTCHAR 170
ENCODING 170
SWIDTH 1080 0
DWIDTH 15 0
BBX 11 13 2 18
BITMAP
1F00
7FC0
7FE0
31E0
00E0
1FE0
7FE0
FFE0
F0E0
E0E0
FFE0
7FE0
3EE0
ENDCHAR
STARTCHAR 171
ENCODING 171
SWIDTH 1584 0
DWIDTH 22 0
BBX 20 15 1 3
BITMAP
03E1F0
07C3E0
0F87C0
1F0F80
1E1F00
3E3E00
7C7C00
F8F800
7C7C00
3E3E00
1E1F00
1F0F80
0F87C0
07C3E0
03E1F0
ENDCHAR
STARTCHAR 172
ENCODING 172
SWIDTH 1584 0
DWIDTH 22 0
BBX 17 9 3 9
BITMAP
FFFF80
FFFF80
FFFF80
FFFF80
000F80
000F80
000F80
000F80
000F80
ENDCHAR
STARTCHAR 173
ENCODING 173
SWIDTH 1512 0
DWIDTH 21 0
BBX 14 4 3 9
BITMAP
FFFC
FFFC
FFFC
FFFC
ENDCHAR
STARTCHAR 174
ENCODING 174
SWIDTH 2160 0
DWIDTH 30 0
BBX 26 26 2 7
BITMAP
007F8000
03FFF000
07FFF800
0FC0FC00
1F001E00
3C000F00
3CFF0700
78FFC780
70FFC380
70E1C380
F0E1E3C0
F0E1E3C0
F0E1C3C0
F0FFC3C0
F0FFC3C0
F0FF83C0
70E38380
70E3C380
78E1C780
38E1E700
3C000F00
1E003E00
0FC0FC00
07FFF800
03FFF000
007F8000
ENDCHAR
STARTCHAR 175
ENCODING 175
SWIDTH 1368 0
DWIDTH 19 0
BBX 15 4 2 26
BITMAP
FFFE
FFFE
FFFE
FFFE
ENDCHAR
STARTCHAR 176
ENCODING 176
SWIDTH 1152 0
DWIDTH 16 0
BBX 12 13 2 18
BITMAP
1F80
7FC0
7FE0
F1E0
F0F0
E0F0
E0F0
E0F0
F0F0
F1E0
7FE0
3FC0
1F80
ENDCHAR
STARTCHAR 177
ENCODING 177
SWIDTH 1656 0
DWIDTH 23 0
BBX 17 17 3 6
BITMAP
03E000
03E000
03E000
03E000
03E000
FFFF80
FFFF80
FFFF80
FFFF80
03E000
03E000
03E000
03E000
FFFF80
FFFF80
FFFF80
FFFF80
ENDCHAR
STARTCHAR 178
ENCODING 178
SWIDTH 936 0
DWIDTH 13 0
BBX 10 14 2 17
BITMAP
3E00
7F80
7F80
F380
03C0
0380
0780
0F00
1E00
3E00
7C00
7FC0
7FC0
7FC0
ENDCHAR
STARTCHAR 179
ENCODING 179
SWIDTH 1008 0
DWIDTH 14 0
BBX 11 14 2 17
BITMAP
1F00
7FC0
7FC0
F1C0
01C0
0FC0
0F00
0FC0
01C0
E1E0
F1E0
FFC0
7FC0
1F00
ENDCHAR
STARTCHAR 180
ENCODING 180
SWIDTH 936 0
DWIDTH 13 0
BBX 9 10 2 26
BITMAP
0400
0700
0F80
1F00
3E00
3C00
7C00
F800
7000
2000
ENDCHAR
STARTCHAR 181
ENCODING 181
SWIDTH 1872 0
DWIDTH 26 0
BBX 21 28 3 -6
BITMAP
F807C0
F807C0
F807C0
F807C0
F807C0
F807C0
F807C0
F807C0
F807C0
F807C0
F807C0
F807C0
F807C0
F807C0
F807C0
F807C0
F807C0
FE0FC0
FFFFF8
F7FFF8
F7F9F8
F3F0F8
F00000
F80000
F80000
F80000
F80000
F80000
ENDCHAR
STARTCHAR 182
ENCODING 182
SWIDTH 2160 0
DWIDTH 30 0
BBX 26 36 2 -5
BITMAP
03FFFFC0
0FFFFFC0
1FFFFFC0
3FFFFFC0
7FFF1E00
7FFF1E00
FFFF1E00
FFFF1E00
FFFF1E00
FFFF1E00
FFFF1E00
FFFF1E00
FFFF1E00
FFFF1E00
FFFF1E00
7FFF1E00
7FFF1E00
3FFF1E00
1FFF1E00
0FFF1E00
01FF1E00
001F1E00
001F1E00
001F1E00
001F1E00
001F1E00
001F1E00
001F1E00
001F1E00
001F1E00
001F1E00
001F1E00
001F1E00
001F1E00
001F1E00
001F1E00
ENDCHAR
STARTCHAR 183
ENCODING 183
SWIDTH 648 0
DWIDTH 9 0
BBX 5 4 2 9
BITMAP
F8
F8
F8
F8
ENDCHAR
STARTCHAR 184
ENCODING 184
SWIDTH 864 0
DWIDTH 12 0
BBX 9 11 2 -9
BITMAP
7800
7800
7800
7800
7E00
7F00
0700
0780
FF00
FF00
FC00
ENDCHAR
STARTCHAR 185
ENCODING 185
SWIDTH 720 0
DWIDTH 10 0
BBX 7 14 2 17
BITMAP
3E
7E
FE
FE
DE
9E
1E
1E
1E
1E
1E
1E
1E
1E
ENDCHAR
STARTCHAR 186
ENCODING 186
SWIDTH 1080 0
DWIDTH 15 0
BBX 11 13 2 18
BITMAP
1F00
7FC0
7FC0
FBE0
F1E0
F1E0
F1E0
F1E0
F1E0
FBE0
7FC0
7FC0
1F00
ENDCHAR
STARTCHAR 187
ENCODING 187
SWIDTH 1584 0
DWIDTH 22 0
BBX 20 15 1 3
BITMAP
F87C00
7C7C00
3E3E00
1F1F00
0F8F80
0787C0
07C3E0
03E1F0
07C3E0
0787C0
0F8F80
1F1F00
3E3E00
7C7C00
F87C00
ENDCHAR
STARTCHAR 188
ENCODING 188
SWIDTH 2088 0
DWIDTH 29 0
BBX 25 31 2 0
BITMAP
3E003C00
7E007800
FE007800
FE00F000
DE00F000
1E01E000
1E01C000
1E03C000
1E038000
1E078000
1E070000
1E0F0000
1E1E0000
001E0000
003C0000
003C0000
00780000
00780000
00F01C00
00E03C00
01E03800
01C07800
03C07000
0380F000
0780F700
0700E700
0F01FF80
1E01FF80
1E01FF80
3C000700
3C000700
ENDCHAR
STARTCHAR 189
ENCODING 189
SWIDTH 2088 0
DWIDTH 29 0
BBX 25 31 2 0
BITMAP
3E003C00
7E007800
FE007800
FE00F000
DE00F000
1E01E000
1E01C000
1E03C000
1E038000
1E078000
1E070000
1E0F0000
1E1E0000
001E0000
003C0000
003C0000
00780000
00780000
00F03E00
00E07F00
01E0FF80
01C0E780
03C00380
03800780
07800F00
07001E00
0F003C00
1E007800
1E00FF80
3C00FF80
3C00FF80
ENDCHAR
STARTCHAR 190
ENCODING 190
SWIDTH 2160 0
DWIDTH 30 0
BBX 26 31 2 0
BITMAP
1F000F00
7FC01E00
7FC01E00
F1C03C00
F1C03C00
03C07800
0F807800
0F80F000
03C0E000
E1E1E000
F1E1C000
FFC3C000
7FC38000
3F078000
00070000
000F0000
001E0000
001E0E00
003C1E00
003C1C00
00783C00
00783C00
00F03800
00E07800
01E07380
01C0F380
03C0FFC0
0380FFC0
0780FFC0
0F000380
0F000380
ENDCHAR
STARTCHAR 191
ENCODING 191
SWIDTH 1296 0
DWIDTH 18 0
BBX 16 31 2 -9
BITMAP
03C0
03C0
03C0
03C0
0000
0000
0000
0000
03C0
03C0
03C0
03C0
07C0
0780
0F80
1F00
1E00
3E00
7C00
7800
F800
F000
F01F
F01F
F01E
F81E
FC3E
7FFC
3FFC
1FF8
07E0
ENDCHAR
STARTCHAR 192
ENCODING 192
SWIDTH 2016 0
DWIDTH 28 0
BBX 26 41 1 0
BITMAP
00400000
00E00000
01F00000
01F80000
00FC0000
007E0000
001C0000
00080000
00000000
00000000
001E0000
001E0000
003F0000
003F0000
007F0000
007F8000
007F8000
00F78000
00F3C000
00F3C000
01E3E000
01E1E000
01E1E000
03C1F000
03C0F000
07C0F000
0780F800
07807800
0F807800
0F007C00
0FFFFC00
1FFFFE00
1FFFFE00
1FFFFE00
3E001F00
3C000F00
7C000F00
7C000F80
78000780
F8000780
F80007C0
ENDCHAR
STARTCHAR 193
ENCODING 193
SWIDTH 2016 0
DWIDTH 28 0
BBX 26 41 1 0
BITMAP
00008000
0001C000
0003E000
0007E000
000FC000
001F0000
000E0000
00040000
00000000
00000000
001E0000
001E0000
003F0000
003F0000
007F0000
007F8000
007F8000
00F78000
00F3C000
00F3C000
01E3E000
01E1E000
01E1E000
03C1F000
03C0F000
07C0F000
0780F800
07807800
0F807800
0F007C00
0FFFFC00
1FFFFE00
1FFFFE00
1FFFFE00
3E001F00
3C000F00
7C000F00
7C000F80
78000780
F8000780
F80007C0
ENDCHAR
STARTCHAR 194
ENCODING 194
SWIDTH 2016 0
DWIDTH 28 0
BBX 26 40 1 0
BITMAP
000C0000
001E0000
007F0000
00FFC000
01F3E000
01E1E000
0080C000
00000000
00000000
001E0000
001E0000
003F0000
003F0000
007F0000
007F8000
007F8000
00F78000
00F3C000
00F3C000
01E3E000
01E1E000
01E1E000
03C1F000
03C0F000
07C0F000
0780F800
07807800
0F807800
0F007C00
0FFFFC00
1FFFFE00
1FFFFE00
1FFFFE00
3E001F00
3C000F00
7C000F00
7C000F80
78000780
F8000780
F80007C0
ENDCHAR
STARTCHAR 195
ENCODING 195
SWIDTH 2016 0
DWIDTH 28 0
BBX 26 39 1 0
BITMAP
01F03800
03FC7800
07FFF800
07FFF800
070FF000
0703E000
00000000
00000000
001E0000
001E0000
003F0000
003F0000
007F0000
007F8000
007F8000
00F78000
00F3C000
00F3C000
01E3E000
01E1E000
01E1E000
03C1F000
03C0F000
07C0F000
0780F800
07807800
0F807800
0F007C00
0FFFFC00
1FFFFE00
1FFFFE00
1FFFFE00
3E001F00
3C000F00
7C000F00
7C000F80
78000780
F8000780
F80007C0
ENDCHAR
STARTCHAR 196
ENCODING 196
SWIDTH 2016 0
DWIDTH 28 0
BBX 26 38 1 0
BITMAP
03E1E000
03E1E000
03E1E000
03E1E000
00000000
00000000
00000000
001E0000
001E0000
003F0000
003F0000
007F0000
007F8000
007F8000
00F78000
00F3C000
00F3C000
01E3E000
01E1E000
01E1E000
03C1F000
03C0F000
07C0F000
0780F800
07807800
0F807800
0F007C00
0FFFFC00
1FFFFE00
1FFFFE00
1FFFFE00
3E001F00
3C000F00
7C000F00
7C000F80
78000780
F8000780
F80007C0
ENDCHAR
STARTCHAR 197
ENCODING 197
SWIDTH 2016 0
DWIDTH 28 0
BBX 26 40 1 0
BITMAP
003F0000
007F8000
00FFC000
00E3C000
00E1C000
00E1C000
00E1C000
00FFC000
007F8000
001E0000
001E0000
003F0000
003F0000
003F0000
007F8000
007F8000
00F78000
00F3C000
00F3C000
01E3E000
01E1E000
01E1E000
03C1F000
03C0F000
03C0F000
0780F800
07807800
0F807800
0F007C00
0FFFFC00
1FFFFE00
1FFFFE00
1FFFFE00
3E001F00
3C000F00
7C000F00
7C000F80
78000780
F8000780
F80007C0
ENDCHAR
STARTCHAR 198
ENCODING 198
SWIDTH 3024 0
DWIDTH 42 0
BBX 40 31 0 0
BITMAP
00007FFFFF
0000FFFFFF
0000FFFFFF
0001FFFFFF
0003EF0000
0003EF0000
0007CF0000
00078F0000
000F8F0000
000F0F0000
001F0F0000
001E0F0000
003E0F0000
003C0F0000
007C0FFFF8
00F80FFFF8
00F80FFFF8
01F00FFFF8
01F00F0000
03E00F0000
03FFFF0000
07FFFF0000
07FFFF0000
0FFFFF0000
0F000F0000
1F000F0000
3E000F0000
3E000FFFFF
7C000FFFFF
7C000FFFFF
F8000FFFFF
ENDCHAR
STARTCHAR 199
ENCODING 199
SWIDTH 1944 0
DWIDTH 27 0
BBX 21 40 3 -9
BITMAP
01FC00
07FF00
0FFFC0
1FFFE0
3F07E0
7E01F0
7C00F8
7800F8
F80078
F80000
F80000
F80000
F80000
F80000
F80000
F80000
F80000
F80000
F80000
F80000
F80000
F80000
F80078
7800F8
7C00F8
7E01F0
3F07E0
1FFFE0
0FFFC0
07FF00
01FC00
007000
007000
007E00
007E00
000F00
000F00
00FF00
01FE00
01FC00
ENDCHAR
STARTCHAR 200
ENCODING 200
SWIDTH 1872 0
DWIDTH 26 0
BBX 19 41 4 0
BITMAP
020000
070000
0F8000
0FC000
07E000
03F000
00E000
004000
000000
000000
FFFFE0
FFFFE0
FFFFE0
FFFFE0
F00000
F00000
F00000
F00000
F00000
F00000
F00000
F00000
F00000
F00000
FFFF80
FFFF80
FFFF80
FFFF80
F00000
F00000
F00000
F00000
F00000
F00000
F00000
F00000
F00000
FFFFE0
FFFFE0
FFFFE0
FFFFE0
ENDCHAR
STARTCHAR 201
ENCODING 201
SWIDTH 1872 0
DWIDTH 26 0
BBX 19 41 4 0
BITMAP
000400
000E00
001F00
003F00
007E00
00F800
007000
002000
000000
000000
FFFFE0
FFFFE0
FFFFE0
FFFFE0
F00000
F00000
F00000
F00000
F00000
F00000
F00000
F00000
F00000
F00000
FFFF80
FFFF80
FFFF80
FFFF80
F00000
F00000
F00000
F00000
F00000
F00000
F00000
F00000
F00000
FFFFE0
FFFFE0
FFFFE0
FFFFE0
ENDCHAR
STARTCHAR 202
ENCODING 202
SWIDTH 1872 0
DWIDTH 26 0
BBX 19 40 4 0
BITMAP
006000
00F000
03F800
07FE00
0F9F00
0F0F00
040600
000000
000000
FFFFE0
FFFFE0
FFFFE0
FFFFE0
F00000
F00000
F00000
F00000
F00000
F00000
F00000
F00000
F00000
F00000
FFFF80
FFFF80
FFFF80
FFFF80
F00000
F00000
F00000
F00000
F00000
F00000
F00000
F00000
F00000
FFFFE0
FFFFE0
FFFFE0
FFFFE0
ENDCHAR
STARTCHAR 203
ENCODING 203
SWIDTH 1872 0
DWIDTH 26 0
BBX 19 38 4 0
BITMAP
0F0F00
0F0F00
0F0F00
0F0F00
000000
000000
000000
FFFFE0
FFFFE0
FFFFE0
FFFFE0
F00000
F00000
F00000
F00000
F00000
F00000
F00000
F00000
F00000
F00000
FFFF80
FFFF80
FFFF80
FFFF80
F00000
F00000
F00000
F00000
F00000
F00000
F00000
F00000
F00000
FFFFE0
FFFFE0
FFFFE0
FFFFE0
ENDCHAR
STARTCHAR 204
ENCODING 204
SWIDTH 864 0
DWIDTH 12 0
BBX 8 41 0 0
BITMAP
20
70
F8
FC
7E
3F
0E
04
00
00
0F
0F
0F
0F
0F
0F
0F
0F
0F
0F
0F
0F
0F
0F
0F
0F
0F
0F
0F
0F
0F
0F
0F
0F
0F
0F
0F
0F
0F
0F
0F
ENDCHAR
STARTCHAR 205
ENCODING 205
SWIDTH 864 0
DWIDTH 12 0
BBX 8 41 4 0
BITMAP
04
0E
1F
3F
7E
F8
70
20
00
00
F0
F0
F0
F0
F0
F0
F0
F0
F0
F0
F0
F0
F0
F0
F0
F0
F0
F0
F0
F0
F0
F0
F0
F0
F0
F0
F0
F0
F0
F0
F0
ENDCHAR
STARTCHAR 206
ENCODING 206
SWIDTH 864 0
DWIDTH 12 0
BBX 12 40 0 0
BITMAP
0600
0F00
3F80
7FE0
F9F0
F0F0
4060
0000
0000
0F00
0F00
0F00
0F00
0F00
0F00
0F00
0F00
0F00
0F00
0F00
0F00
0F00
0F00
0F00
0F00
0F00
0F00
0F00
0F00
0F00
0F00
0F00
0F00
0F00
0F00
0F00
0F00
0F00
0F00
0F00
ENDCHAR
STARTCHAR 207
ENCODING 207
SWIDTH 864 0
DWIDTH 12 0
BBX 12 38 0 0
BITMAP
F0F0
F0F0
F0F0
F0F0
0000
0000
0000
0F00
0F00
0F00
0F00
0F00
0F00
0F00
0F00
0F00
0F00
0F00
0F00
0F00
0F00
0F00
0F00
0F00
0F00
0F00
0F00
0F00
0F00
0F00
0F00
0F00
0F00
0F00
0F00
0F00
0F00
0F00
ENDCHAR
STARTCHAR 208
ENCODING 208
SWIDTH 2088 0
DWIDTH 29 0
BBX 24 31 2 0
BITMAP
1FFF80
1FFFE0
1FFFF8
1FFFFC
1E00FC
1E007E
1E003E
1E001F
1E001F
1E000F
1E000F
1E000F
1E000F
FFFC0F
FFFC0F
FFFC0F
FFFC0F
1E000F
1E000F
1E000F
1E000F
1E000F
1E001F
1E001F
1E003E
1E007E
1E00FC
1FFFFC
1FFFF8
1FFFE0
1FFF80
ENDCHAR
STARTCHAR 209
ENCODING 209
SWIDTH 2160 0
DWIDTH 30 0
BBX 22 39 4 0
BITMAP
07C0F0
0FF8E0
0FFFE0
1FFFE0
1E3FE0
1E0F80
000000
000000
F0003C
F8003C
F8003C
FC003C
FC003C
FE003C
FF003C
FF003C
FF803C
F7C03C
F7C03C
F3E03C
F1E03C
F1F03C
F0F83C
F0783C
F07C3C
F03E3C
F01E3C
F01F3C
F00F3C
F00FBC
F007FC
F003FC
F003FC
F001FC
F000FC
F000FC
F0007C
F0007C
F0003C
ENDCHAR
STARTCHAR 210
ENCODING 210
SWIDTH 2016 0
DWIDTH 28 0
BBX 22 40 3 0
BITMAP
038000
07C000
07E000
03F000
01F800
007000
002000
000000
000000
01FC00
07FF80
0FFFC0
1FFFE0
3F07F0
7E01F0
7C00F8
780078
F80078
F8007C
F8007C
F8007C
F8007C
F8007C
F8007C
F8007C
F8007C
F8007C
F8007C
F8007C
F8007C
F8007C
F80078
780078
7C00F8
7E01F0
3F07F0
1FFFE0
0FFFC0
07FF80
01FC00
ENDCHAR
STARTCHAR 211
ENCODING 211
SWIDTH 2016 0
DWIDTH 28 0
BBX 22 41 3 0
BITMAP
000200
000700
000F80
001F80
003F00
007C00
003800
001000
000000
000000
01FC00
07FF80
0FFFC0
1FFFE0
3F07F0
7E01F0
7C00F8
780078
F80078
F8007C
F8007C
F8007C
F8007C
F8007C
F8007C
F8007C
F8007C
F8007C
F8007C
F8007C
F8007C
F8007C
F80078
780078
7C00F8
7E01F0
3F07F0
1FFFE0
0FFFC0
07FF80
01FC00
ENDCHAR
STARTCHAR 212
ENCODING 212
SWIDTH 2016 0
DWIDTH 28 0
BBX 22 40 3 0
BITMAP
003000
007800
01FC00
03FF00
07CF80
078780
020200
000000
000000
01FC00
07FF80
0FFFC0
1FFFE0
3F07F0
7E01F0
7C00F8
780078
F80078
F8007C
F8007C
F8007C
F8007C
F8007C
F8007C
F8007C
F8007C
F8007C
F8007C
F8007C
F8007C
F8007C
F80078
780078
7C00F8
7E01F0
3F07F0
1FFFE0
0FFFC0
07FF80
01FC00
ENDCHAR
STARTCHAR 213
ENCODING 213
SWIDTH 2016 0
DWIDTH 28 0
BBX 22 39 3 0
BITMAP
07C0E0
0FF1E0
1FFFE0
1FFFE0
1C3FC0
1C0F80
000000
000000
01FC00
07FF80
0FFFC0
1FFFE0
3F07F0
7E01F0
7C00F8
780078
F80078
F8007C
F8007C
F8007C
F8007C
F8007C
F8007C
F8007C
F8007C
F8007C
F8007C
F8007C
F8007C
F8007C
F80078
780078
7C00F8
7E01F0
3F07F0
1FFFE0
0FFFC0
07FF80
01FC00
ENDCHAR
STARTCHAR 214
ENCODING 214
SWIDTH 2016 0
DWIDTH 28 0
BBX 22 37 3 0
BITMAP
0F8780
0F8780
0F8780
0F8780
000000
000000
01FC00
07FF80
0FFFC0
1FFFE0
3F07F0
7E01F0
7C00F8
780078
F80078
F8007C
F8007C
F8007C
F8007C
F8007C
F8007C
F8007C
F8007C
F8007C
F8007C
F8007C
F8007C
F8007C
F80078
780078
7C00F8
7E01F0
3F07F0
1FFFE0
0FFFC0
07FF80
01FC00
ENDCHAR
STARTCHAR 215
ENCODING 215
SWIDTH 1584 0
DWIDTH 22 0
BBX 16 16 3 6
BITMAP
2008
701E
F83F
7C7E
3EFC
1FF8
0FF0
07E0
07E0
0FF0
1FF8
3E7C
7C3E
F81F
700C
2000
ENDCHAR
STARTCHAR 216
ENCODING 216
SWIDTH 2016 0
DWIDTH 28 0
BBX 22 36 3 -2
BITMAP
000038
000078
000070
01FCF0
07FFE0
0FFFE0
1FFFE0
3F07F0
7E03F0
7C03F8
780778
F80778
F80E7C
F80E7C
F81E7C
F81C7C
F83C7C
F8387C
F8787C
F8707C
F8F07C
F8E07C
F8E07C
F9C07C
F9C07C
FB8078
7B8078
7F00F8
7F01F0
3F07F0
1FFFE0
1FFFC0
1FFF80
3DFC00
380000
780000
ENDCHAR
STARTCHAR 217
ENCODING 217
SWIDTH 2016 0
DWIDTH 28 0
BBX 22 41 3 0
BITMAP
010000
038000
07C000
07E000
03F000
00F800
007000
002000
000000
000000
F8003C
F8003C
F8003C
F8003C
F8003C
F8003C
F8003C
F8003C
F8003C
F8003C
F8003C
F8003C
F8003C
F8003C
F8003C
F8003C
F8003C
F8003C
F8003C
F8003C
F8003C
F8007C
78007C
780078
7C00F8
3E01F8
3F03F0
1FFFE0
0FFFE0
07FF80
01FE00
ENDCHAR
STARTCHAR 218
ENCODING 218
SWIDTH 2016 0
DWIDTH 28 0
BBX 22 41 3 0
BITMAP
000200
000700
000F80
001F80
003F00
007E00
003800
001000
000000
000000
F8003C
F8003C
F8003C
F8003C
F8003C
F8003C
F8003C
F8003C
F8003C
F8003C
F8003C
F8003C
F8003C
F8003C
F8003C
F8003C
F8003C
F8003C
F8003C
F8003C
F8003C
F8007C
78007C
780078
7C00F8
3E01F8
3F03F0
1FFFE0
0FFFE0
07FF80
01FE00
ENDCHAR
STARTCHAR 219
ENCODING 219
SWIDTH 2016 0
DWIDTH 28 0
BBX 22 40 3 0
BITMAP
003000
007800
00FC00
03FF00
07CF80
078780
030300
000000
000000
F8003C
F8003C
F8003C
F8003C
F8003C
F8003C
F8003C
F8003C
F8003C
F8003C
F8003C
F8003C
F8003C
F8003C
F8003C
F8003C
F8003C
F8003C
F8003C
F8003C
F8003C
F8007C
78007C
780078
7C00F8
3E01F8
3F03F0
1FFFE0
0FFFE0
07FF80
01FE00
ENDCHAR
STARTCHAR 220
ENCODING 220
SWIDTH 2016 0
DWIDTH 28 0
BBX 22 38 3 0
BITMAP
0787C0
0787C0
0787C0
0787C0
000000
000000
000000
F8003C
F8003C
F8003C
F8003C
F8003C
F8003C
F8003C
F8003C
F8003C
F8003C
F8003C
F8003C
F8003C
F8003C
F8003C
F8003C
F8003C
F8003C
F8003C
F8003C
F8003C
F8007C
78007C
780078
7C00F8
3E01F8
3F03F0
1FFFE0
0FFFE0
07FF80
01FE00
ENDCHAR
STARTCHAR 221
ENCODING 221
SWIDTH 1584 0
DWIDTH 22 0
BBX 22 41 0 0
BITMAP
000200
000700
000F80
001F80
003F00
007C00
003800
001000
000000
000000
F0007C
F80078
7800F8
7C00F0
3C01F0
3E01E0
1E03E0
1F03C0
0F07C0
0F8780
078F80
07CF00
03CF00
03FE00
01FE00
01FC00
00FC00
00F800
007800
007800
007800
007800
007800
007800
007800
007800
007800
007800
007800
007800
007800
ENDCHAR
STARTCHAR 222
ENCODING 222
SWIDTH 1944 0
DWIDTH 27 0
BBX 21 31 4 0
BITMAP
F00000
F00000
F00000
F00000
F00000
F00000
FFFE00
FFFF80
FFFFC0
FFFFE0
F003F0
F001F0
F000F0
F000F8
F000F8
F000F8
F000F8
F000F8
F000F0
F001F0
F003F0
FFFFE0
FFFFC0
FFFF80
FFFE00
F00000
F00000
F00000
F00000
F00000
F00000
ENDCHAR
STARTCHAR 223
ENCODING 223
SWIDTH 1728 0
DWIDTH 24 0
BBX 18 31 3 0
BITMAP
03F800
0FFE00
1FFF00
3FFF80
7E0F80
7C07C0
7807C0
F807C0
F807C0
F80780
F87F80
F87E00
F87F00
F87F80
F80780
F807C0
F807C0
F807C0
F807C0
F807C0
F807C0
F807C0
F807C0
F807C0
F807C0
F807C0
F807C0
F87F80
F87F80
F87F00
F87C00
ENDCHAR
STARTCHAR 224
ENCODING 224
SWIDTH 1656 0
DWIDTH 23 0
BBX 18 36 2 0
BITMAP
040000
0E0000
1E0000
1F0000
0F8000
07C000
03E000
01E000
00E000
008000
000000
000000
000000
000000
03F800
1FFE00
3FFF00
3FFF80
1C0F80
080780
0007C0
0003C0
0003C0
0FFFC0
3FFFC0
7FFFC0
7C03C0
F803C0
F003C0
F003C0
F003C0
7803C0
7C0FC0
7FFFC0
3FFBC0
07E3C0
ENDCHAR
STARTCHAR 225
ENCODING 225
SWIDTH 1656 0
DWIDTH 23 0
BBX 18 36 2 0
BITMAP
000400
000E00
001F00
003E00
003C00
007C00
00F800
01F000
00E000
004000
000000
000000
000000
000000
03F800
1FFE00
3FFF00
3FFF80
1C0F80
080780
0007C0
0003C0
0003C0
0FFFC0
3FFFC0
7FFFC0
7C03C0
F803C0
F003C0
F003C0
F003C0
7803C0
7C0FC0
7FFFC0
3FFBC0
07E3C0
ENDCHAR
STARTCHAR 226
ENCODING 226
SWIDTH 1656 0
DWIDTH 23 0
BBX 18 35 2 0
BITMAP
004000
00E000
01F000
03F800
07FC00
0FBE00
1F1F00
0E0E00
040400
000000
000000
000000
000000
03F800
1FFE00
3FFF00
3FFF80
1C0F80
080780
0007C0
0003C0
0003C0
0FFFC0
3FFFC0
7FFFC0
7C03C0
F803C0
F003C0
F003C0
F003C0
7803C0
7C0FC0
7FFFC0
3FFBC0
07E3C0
ENDCHAR
STARTCHAR 227
ENCODING 227
SWIDTH 1656 0
DWIDTH 23 0
BBX 18 32 2 0
BITMAP
0F8780
1FC780
3FFF00
3FFF00
3CFF00
383E00
000000
000000
000000
000000
03F800
1FFE00
3FFF00
3FFF80
1C0F80
080780
0007C0
0003C0
0003C0
0FFFC0
3FFFC0
7FFFC0
7C03C0
F803C0
F003C0
F003C0
F003C0
7803C0
7C0FC0
7FFFC0
3FFBC0
07E3C0
ENDCHAR
STARTCHAR 228
ENCODING 228
SWIDTH 1656 0
DWIDTH 23 0
BBX 18 30 2 0
BITMAP
1E0F00
1E0F00
1E0F00
1E0F00
000000
000000
000000
000000
03F800
1FFE00
3FFF00
3FFF80
1C0F80
080780
0007C0
0003C0
0003C0
0FFFC0
3FFFC0
7FFFC0
7C03C0
F803C0
F003C0
F003C0
F003C0
7803C0
7C0FC0
7FFFC0
3FFBC0
07E3C0
ENDCHAR
STARTCHAR 229
ENCODING 229
SWIDTH 1656 0
DWIDTH 23 0
BBX 18 36 2 0
BITMAP
01F000
07F800
07FC00
0F1C00
0E1C00
0E1C00
0F1C00
07FC00
07F800
01F000
000000
000000
000000
000000
03F800
1FFE00
3FFF00
3FFF80
1C0F80
080780
0007C0
0003C0
0003C0
0FFFC0
3FFFC0
7FFFC0
7C03C0
F803C0
F003C0
F003C0
F003C0
7803C0
7C0FC0
7FFFC0
3FFBC0
07E3C0
ENDCHAR
STARTCHAR 230
ENCODING 230
SWIDTH 2592 0
DWIDTH 36 0
BBX 31 22 2 0
BITMAP
03F00FC0
1FFC3FF0
3FFE7FF8
3FFEFFFC
1C0FF07C
0007E03C
0003C01E
0003C01E
0003C01E
0FFFFFFE
3FFFFFFE
7FFFFFFE
78038000
F8038000
F007C000
F007C000
F80FE008
7C1FF03C
7FFEFFFE
7FFC7FFC
3FF83FF0
0FE00FC0
ENDCHAR
STARTCHAR 231
ENCODING 231
SWIDTH 1512 0
DWIDTH 21 0
BBX 17 31 3 -9
BITMAP
07F800
1FFE00
3FFF00
7FFF80
7E0F00
F80600
F80000
F00000
F00000
F00000
F00000
F00000
F00000
F00000
F00000
F80000
F80600
7E0F00
7FFF80
3FFF00
1FFE00
03F800
03C000
03C000
03F000
03F800
003800
003800
07F800
07F800
07E000
ENDCHAR
STARTCHAR 232
ENCODING 232
SWIDTH 1656 0
DWIDTH 23 0
BBX 18 36 3 0
BITMAP
080000
1C0000
3E0000
3F0000
1F0000
0F8000
07C000
03E000
01C000
008000
000000
000000
000000
000000
07F000
1FFC00
3FFE00
7FFF00
7C1F00
F80F80
F00780
F00780
F00780
F00780
FFFFC0
FFFFC0
FFFFC0
F00000
F00000
F00000
F80200
7E0F00
7FFF80
3FFF00
1FFE00
03F000
ENDCHAR
STARTCHAR 233
ENCODING 233
SWIDTH 1656 0
DWIDTH 23 0
BBX 18 36 3 0
BITMAP
000800
001C00
003E00
003E00
007C00
00F800
01F000
01E000
01C000
008000
000000
000000
000000
000000
07F000
1FFC00
3FFE00
7FFF00
7C1F00
F80F80
F00780
F00780
F00780
F00780
FFFFC0
FFFFC0
FFFFC0
F00000
F00000
F00000
F80200
7E0F00
7FFF80
3FFF00
1FFE00
03F000
ENDCHAR
STARTCHAR 234
ENCODING 234
SWIDTH 1656 0
DWIDTH 23 0
BBX 18 35 3 0
BITMAP
008000
01C000
03E000
07F000
0FF800
1F7C00
3E3E00
1C1C00
080800
000000
000000
000000
000000
07F000
1FFC00
3FFE00
7FFF00
7C1F00
F80F80
F00780
F00780
F00780
F00780
FFFFC0
FFFFC0
FFFFC0
F00000
F00000
F00000
F80200
7E0F00
7FFF80
3FFF00
1FFE00
03F000
ENDCHAR
STARTCHAR 235
ENCODING 235
SWIDTH 1656 0
DWIDTH 23 0
BBX 18 30 3 0
BITMAP
3C1E00
3C1E00
3C1E00
3C1E00
000000
000000
000000
000000
07F000
1FFC00
3FFE00
7FFF00
7C1F00
F80F80
F00780
F00780
F00780
F00780
FFFFC0
FFFFC0
FFFFC0
F00000
F00000
F00000
F80200
7E0F00
7FFF80
3FFF00
1FFE00
03F000
ENDCHAR
STARTCHAR 236
ENCODING 236
SWIDTH 792 0
DWIDTH 11 0
BBX 8 36 0 0
BITMAP
40
E0
F0
F0
F8
7C
3E
1E
0E
04
00
00
00
00
1F
1F
1F
1F
1F
1F
1F
1F
1F
1F
1F
1F
1F
1F
1F
1F
1F
1F
1F
1F
1F
1F
ENDCHAR
STARTCHAR 237
ENCODING 237
SWIDTH 792 0
DWIDTH 11 0
BBX 8 36 3 0
BITMAP
02
07
0F
1F
1F
3E
7C
F8
70
20
00
00
00
00
F8
F8
F8
F8
F8
F8
F8
F8
F8
F8
F8
F8
F8
F8
F8
F8
F8
F8
F8
F8
F8
F8
ENDCHAR
STARTCHAR 238
ENCODING 238
SWIDTH 792 0
DWIDTH 11 0
BBX 11 35 0 0
BITMAP
0400
0E00
1F00
3F80
7FC0
FBE0
F1E0
E0E0
4040
0000
0000
0000
0000
1F00
1F00
1F00
1F00
1F00
1F00
1F00
1F00
1F00
1F00
1F00
1F00
1F00
1F00
1F00
1F00
1F00
1F00
1F00
1F00
1F00
1F00
ENDCHAR
STARTCHAR 239
ENCODING 239
SWIDTH 792 0
DWIDTH 11 0
BBX 11 30 0 0
BITMAP
E0E0
E0E0
E0E0
E0E0
0000
0000
0000
0000
1F00
1F00
1F00
1F00
1F00
1F00
1F00
1F00
1F00
1F00
1F00
1F00
1F00
1F00
1F00
1F00
1F00
1F00
1F00
1F00
1F00
1F00
ENDCHAR
STARTCHAR 240
ENCODING 240
SWIDTH 1656 0
DWIDTH 23 0
BBX 17 31 3 0
BITMAP
03C300
03FF00
0FFF00
3FFF80
3FF800
1E7C00
003C00
001E00
001E00
0FCF00
1FEF00
3FF700
7FFF00
FC1F80
F80F80
F00F80
F00780
F00780
F00780
F00780
F00780
F00780
F00780
F00780
F00F80
F80F00
7C1F00
7FFF00
3FFE00
1FFC00
07F000
ENDCHAR
STARTCHAR 241
ENCODING 241
SWIDTH 1728 0
DWIDTH 24 0
BBX 18 32 3 0
BITMAP
0F0700
1FC700
3FFF00
3FFF00
38FE00
383C00
000000
000000
000000
000000
F8F800
FBFE00
FFFF00
FFFF80
FE1F80
F80780
F807C0
F807C0
F803C0
F803C0
F803C0
F803C0
F803C0
F803C0
F803C0
F803C0
F803C0
F803C0
F803C0
F803C0
F803C0
F803C0
ENDCHAR
STARTCHAR 242
ENCODING 242
SWIDTH 1656 0
DWIDTH 23 0
BBX 18 36 3 0
BITMAP
080000
1C0000
3E0000
1F0000
1F0000
0F8000
07C000
03E000
01C000
008000
000000
000000
000000
000000
07F000
1FFC00
3FFE00
7FFF00
7C1F80
F80F80
F80780
F007C0
F007C0
F007C0
F007C0
F007C0
F007C0
F007C0
F007C0
F80780
F80F80
7C1F80
7FFF00
3FFE00
1FFC00
07F000
ENDCHAR
STARTCHAR 243
ENCODING 243
SWIDTH 1656 0
DWIDTH 23 0
BBX 18 36 3 0
BITMAP
000800
001C00
003E00
003E00
007C00
00F800
01F000
01E000
01C000
00C000
000000
000000
000000
000000
07F000
1FFC00
3FFE00
7FFF00
7C1F80
F80F80
F80780
F007C0
F007C0
F007C0
F007C0
F007C0
F007C0
F007C0
F007C0
F80780
F80F80
7C1F80
7FFF00
3FFE00
1FFC00
07F000
ENDCHAR
STARTCHAR 244
ENCODING 244
SWIDTH 1656 0
DWIDTH 23 0
BBX 18 35 3 0
BITMAP
008000
01C000
03E000
07F000
0FF800
1F7C00
3E3E00
1C1C00
080800
000000
000000
000000
000000
07F000
1FFC00
3FFE00
7FFF00
7C1F80
F80F80
F80780
F007C0
F007C0
F007C0
F007C0
F007C0
F007C0
F007C0
F007C0
F80780
F80F80
7C1F80
7FFF00
3FFE00
1FFC00
07F000
ENDCHAR
STARTCHAR 245
ENCODING 245
SWIDTH 1656 0
DWIDTH 23 0
BBX 18 32 3 0
BITMAP
1F0700
3FCF00
3FFF00
3FFF00
78FE00
783C00
000000
000000
000000
000000
07F000
1FFC00
3FFE00
7FFF00
7C1F80
F80F80
F80780
F007C0
F007C0
F007C0
F007C0
F007C0
F007C0
F007C0
F007C0
F80780
F80F80
7C1F80
7FFF00
3FFE00
1FFC00
07F000
ENDCHAR
STARTCHAR 246
ENCODING 246
SWIDTH 1656 0
DWIDTH 23 0
BBX 18 30 3 0
BITMAP
3C1E00
3C1E00
3C1E00
3C1E00
000000
000000
000000
000000
07F000
1FFC00
3FFE00
7FFF00
7C1F80
F80F80
F80780
F007C0
F007C0
F007C0
F007C0
F007C0
F007C0
F007C0
F007C0
F80780
F80F80
7C1F80
7FFF00
3FFE00
1FFC00
07F000
ENDCHAR
STARTCHAR 247
ENCODING 247
SWIDTH 1512 0
DWIDTH 21 0
BBX 15 16 3 6
BITMAP
07C0
07C0
07C0
07C0
0000
0000
FFFE
FFFE
FFFE
FFFE
0000
0000
07C0
07C0
07C0
07C0
ENDCHAR
STARTCHAR 248
ENCODING 248
SWIDTH 1656 0
DWIDTH 23 0
BBX 18 28 3 -3
BITMAP
000700
000700
000E00
07FE00
1FFC00
3FFE00
7FFF00
7C3F80
F83F80
F87780
F077C0
F067C0
F0E7C0
F0E7C0
F1C7C0
F1C7C0
F387C0
F387C0
FB0780
FF0F80
7F1F80
7FFF00
3FFE00
1FFC00
1FF000
180000
380000
380000
ENDCHAR
STARTCHAR 249
ENCODING 249
SWIDTH 1728 0
DWIDTH 24 0
BBX 18 36 3 0
BITMAP
040000
1C0000
3E0000
1F0000
0F8000
078000
07C000
03E000
01C000
008000
000000
000000
000000
000000
F807C0
F807C0
F807C0
F807C0
F807C0
F807C0
F807C0
F807C0
F807C0
F807C0
F807C0
F807C0
F807C0
F807C0
F807C0
7807C0
7C07C0
7E1FC0
3FFFC0
3FFFC0
1FF7C0
07E7C0
ENDCHAR
STARTCHAR 250
ENCODING 250
SWIDTH 1728 0
DWIDTH 24 0
BBX 18 36 3 0
BITMAP
000800
001C00
001F00
003E00
007C00
00F800
00F000
01E000
00E000
004000
000000
000000
000000
000000
F807C0
F807C0
F807C0
F807C0
F807C0
F807C0
F807C0
F807C0
F807C0
F807C0
F807C0
F807C0
F807C0
F807C0
F807C0
7807C0
7C07C0
7E1FC0
3FFFC0
3FFFC0
1FF7C0
07E7C0
ENDCHAR
STARTCHAR 251
ENCODING 251
SWIDTH 1728 0
DWIDTH 24 0
BBX 18 35 3 0
BITMAP
008000
01C000
01E000
03F000
07F800
0F3C00
1E1E00
1C0E00
080400
000000
000000
000000
000000
F807C0
F807C0
F807C0
F807C0
F807C0
F807C0
F807C0
F807C0
F807C0
F807C0
F807C0
F807C0
F807C0
F807C0
F807C0
7807C0
7C07C0
7E1FC0
3FFFC0
3FFFC0
1FF7C0
07E7C0
ENDCHAR
STARTCHAR 252
ENCODING 252
SWIDTH 1728 0
DWIDTH 24 0
BBX 18 30 3 0
BITMAP
3E1F00
3E1F00
3E1F00
3E1F00
000000
000000
000000
000000
F807C0
F807C0
F807C0
F807C0
F807C0
F807C0
F807C0
F807C0
F807C0
F807C0
F807C0
F807C0
F807C0
F807C0
F807C0
7807C0
7C07C0
7E1FC0
3FFFC0
3FFFC0
1FF7C0
07E7C0
ENDCHAR
STARTCHAR 253
ENCODING 253
SWIDTH 1512 0
DWIDTH 21 0
BBX 19 45 1 -9
BITMAP
000400
000E00
000F00
001F00
003E00
007C00
007800
00F000
00F000
002000
000000
000000
000000
000000
F801E0
7803E0
7803C0
7C03C0
3C03C0
3C0780
3E0780
1E0780
1E0F00
0F0F00
0F0F00
0F1E00
079E00
079E00
07FC00
03FC00
03FC00
01F800
01F800
01F800
00F000
00F000
00F000
01E000
01E000
03E000
07C000
1FC000
1F8000
1F0000
1E0000
ENDCHAR
STARTCHAR 254
ENCODING 254
SWIDTH 1656 0
DWIDTH 23 0
BBX 18 40 3 -9
BITMAP
F80000
F80000
F80000
F80000
F80000
F80000
F80000
F80000
F80000
F8F800
FBFE00
FFFF00
FFFF80
FE1F80
F80F80
F80780
F807C0
F807C0
F807C0
F807C0
F807C0
F807C0
F807C0
F807C0
F807C0
F80F80
FE1F80
FFFF80
FFFF00
FBFE00
F8F800
F80000
F80000
F80000
F80000
F80000
F80000
F80000
F80000
F80000
ENDCHAR
STARTCHAR 255
ENCODING 255
SWIDTH 1512 0
DWIDTH 21 0
BBX 19 39 1 -9
BITMAP
1F0F00
1F0F00
1F0F00
1F0F00
000000
000000
000000
000000
F801E0
7803E0
7803C0
7C03C0
3C03C0
3C0780
3E0780
1E0780
1E0F00
0F0F00
0F0F00
0F1E00
079E00
079E00
07FC00
03FC00
03FC00
01F800
01F800
01F800
00F000
00F000
00F000
01E000
01E000
03E000
07C000
1FC000
1F8000
1F0000
1E0000
ENDCHAR
ENDFONT
